<svg role="img" viewBox="0 0 240 64" xmlns="http://www.w3.org/2000/svg">
  <title>Microsoft Copilot</title>
  <rect x="1" y="1" width="238" height="62" rx="16" fill="none"/>
  <path d="M38 18c9.5 0 17.2 7.7 17.2 17.2S47.5 52.4 38 52.4s-17.2-7.7-17.2-17.2S28.5 18 38 18Zm0 8.7a8.5 8.5 0 1 0 0 17 8.5 8.5 0 0 0 0-17Z" fill="#111"/>
  <path d="M50.9 12.8c8 4.5 13.5 13.1 13.5 22.9 0 5.9-2 11.4-5.3 15.8l-7-5.3a17.4 17.4 0 0 0-1.2-22.7V12.8Z" fill="#111" opacity=".82"/>
  <path d="M25.1 12.8v10.7a17.4 17.4 0 0 0-1.2 22.7l-7 5.3a26.1 26.1 0 0 1 8.2-38.7Z" fill="#111" opacity=".64"/>
  <text x="82" y="40" fill="#111" font-family="Arial, Helvetica, sans-serif" font-size="25" font-weight="700">Copilot</text>
</svg>
