<svg xmlns="http://www.w3.org/2000/svg" aria-hidden="true" style="position:absolute;width:0;height:0;overflow:hidden">
<defs>
<symbol id="hf-leadgenerierung" xmlns="http://www.w3.org/2000/svg" aria-hidden="true">
<svg xmlns="http://www.w3.org/2000/svg" width="1" height="1"/>
</symbol>
<symbol id="hf-content-creation" xmlns="http://www.w3.org/2000/svg" aria-hidden="true">
<svg xmlns="http://www.w3.org/2000/svg" width="1" height="1"/>
</symbol>
<symbol id="hf-webhook-automatisierung" xmlns="http://www.w3.org/2000/svg" aria-hidden="true">
<svg xmlns="http://www.w3.org/2000/svg" width="1" height="1"/>
</symbol>
<symbol id="hf-zapier-1" xmlns="http://www.w3.org/2000/svg" aria-hidden="true">
<svg xmlns="http://www.w3.org/2000/svg" width="1" height="1"/>
</symbol>
<symbol id="hf-webflow" xmlns="http://www.w3.org/2000/svg" aria-hidden="true">
<svg xmlns="http://www.w3.org/2000/svg" width="1" height="1"/>
</symbol>
<symbol id="hf-wordpress" xmlns="http://www.w3.org/2000/svg" aria-hidden="true">
<svg xmlns="http://www.w3.org/2000/svg" width="1" height="1"/>
</symbol>
<symbol id="hf-woocommerce" xmlns="http://www.w3.org/2000/svg" aria-hidden="true">
<svg xmlns="http://www.w3.org/2000/svg" width="1" height="1"/>
</symbol>
<symbol id="hf-shopify" xmlns="http://www.w3.org/2000/svg" aria-hidden="true">
<svg xmlns="http://www.w3.org/2000/svg" width="1" height="1"/>
</symbol>
<symbol id="hf-portfolio-brands" xmlns="http://www.w3.org/2000/svg" aria-hidden="true">
<svg xmlns="http://www.w3.org/2000/svg" width="1" height="1"/>
</symbol>
<symbol id="hf-semrush" xmlns="http://www.w3.org/2000/svg" aria-hidden="true">
<svg xmlns="http://www.w3.org/2000/svg" width="1" height="1"/>
</symbol>
<symbol id="hf-salesforce" xmlns="http://www.w3.org/2000/svg" aria-hidden="true">
<svg xmlns="http://www.w3.org/2000/svg" width="1" height="1"/>
</symbol>
<symbol id="hf-meta-1" xmlns="http://www.w3.org/2000/svg" aria-hidden="true">
<svg xmlns="http://www.w3.org/2000/svg" width="1" height="1"/>
</symbol>
<symbol id="hf-hubspot" xmlns="http://www.w3.org/2000/svg" aria-hidden="true">
<svg xmlns="http://www.w3.org/2000/svg" width="1" height="1"/>
</symbol>
<symbol id="hf-google-ads" xmlns="http://www.w3.org/2000/svg" aria-hidden="true">
<svg xmlns="http://www.w3.org/2000/svg" width="1" height="1"/>
</symbol>
<symbol id="hf-figma" xmlns="http://www.w3.org/2000/svg" aria-hidden="true">
<svg xmlns="http://www.w3.org/2000/svg" width="1" height="1"/>
</symbol>
<symbol id="hf-open-ai" xmlns="http://www.w3.org/2000/svg" aria-hidden="true">
<svg xmlns="http://www.w3.org/2000/svg" width="1" height="1"/>
</symbol>
<symbol id="hf-markenstrategie" xmlns="http://www.w3.org/2000/svg" aria-hidden="true">
<svg xmlns="http://www.w3.org/2000/svg" width="1" height="1"/>
</symbol>
<symbol id="hf-logo-design" xmlns="http://www.w3.org/2000/svg" aria-hidden="true">
<svg xmlns="http://www.w3.org/2000/svg" width="1" height="1"/>
</symbol>
<symbol id="hf-ci-corporate-identity" xmlns="http://www.w3.org/2000/svg" aria-hidden="true">
<svg xmlns="http://www.w3.org/2000/svg" width="1" height="1"/>
</symbol>
<symbol id="hf-portfolio-marketing" xmlns="http://www.w3.org/2000/svg" aria-hidden="true">
<svg xmlns="http://www.w3.org/2000/svg" width="1" height="1"/>
</symbol>
<symbol id="hf-smm-suchmaschinenmarketing" xmlns="http://www.w3.org/2000/svg" aria-hidden="true">
<svg xmlns="http://www.w3.org/2000/svg" width="1" height="1"/>
</symbol>
<symbol id="hf-seo" xmlns="http://www.w3.org/2000/svg" aria-hidden="true">
<svg xmlns="http://www.w3.org/2000/svg" width="1" height="1"/>
</symbol>
<symbol id="hf-keynotes" xmlns="http://www.w3.org/2000/svg" aria-hidden="true">
<svg xmlns="http://www.w3.org/2000/svg" width="1" height="1"/>
</symbol>
<symbol id="hf-print-grafikdesign" xmlns="http://www.w3.org/2000/svg" aria-hidden="true">
<svg xmlns="http://www.w3.org/2000/svg" width="1" height="1"/>
</symbol>
<symbol id="hf-webdesign" xmlns="http://www.w3.org/2000/svg" aria-hidden="true">
<svg xmlns="http://www.w3.org/2000/svg" width="1" height="1"/>
</symbol>
<symbol id="hf-portfolio-webdesign" xmlns="http://www.w3.org/2000/svg" aria-hidden="true">
<svg xmlns="http://www.w3.org/2000/svg" width="1" height="1"/>
</symbol>
<symbol id="hf-app-window-clock-streamline-ultimate" xmlns="http://www.w3.org/2000/svg" aria-hidden="true">
<path d="M2.208 0.015984C1.682784 0.09871200000000001 1.236912 0.300936 0.8601840000000001 0.6273120000000001C0.534432 0.9095040000000001 0.2406 1.378656 0.10315200000000001 1.836L0.038256000000000005 2.052 0.025127999999999998 3.2880000000000003C0.017904 3.9678 0.017688 6.8675999999999995 0.024672 9.732L0.03732 14.94 0.08812800000000001 15.108C0.24648 15.631632 0.41270400000000007 15.919152 0.754776 16.261224000000002C1.12944 16.635912 1.5216960000000002 16.846512 2.044992 16.954008C2.2083120000000003 16.987560000000002 2.605248 16.992 5.43576 16.992C8.920584 16.992 8.722871999999999 16.999752 8.865432 16.85736C9.105 16.618032 9.059544 16.25424 8.766 16.061856000000002C8.706336 16.022736000000002 8.491032 16.019136000000003 5.48508 16.006824C1.903704 15.992160000000002 2.193 16.006584 1.824 15.8244C1.579368 15.703608000000001 1.310472 15.433368000000002 1.190544 15.187776C1.019784 14.838047999999999 1.032 15.247512 1.032 9.87096L1.032 5.016 10.523568000000001 5.016L20.01516 5.016 20.021568 7.593936L20.028 10.171872 20.101056 10.275936C20.204112 10.422696 20.346528000000003 10.496016000000001 20.525232 10.494336C20.721576 10.492488 20.864592 10.403664 20.957496000000003 10.225848000000001L21.02508 10.09644 21.017616 6.1222080000000005C21.010608 2.38932 21.007512 2.13708 20.966856 1.968C20.82924 1.395912 20.485608 0.858888 20.035584 0.5126160000000001C19.855872 0.374328 19.54188 0.20750400000000002 19.316784 0.130752C18.909096 -0.008303999999999999 19.462872 -0.000288 10.502856000000001 0.0032640000000000004C5.973696 0.005064 2.241 0.0108 2.208 0.015984M2.1700320000000004 1.043568C1.777776 1.1289360000000002 1.3558320000000001 1.4650320000000001 1.1751600000000002 1.836C1.0398 2.113944 1.032 2.184912 1.032 3.1370400000000003L1.032 4.008 10.524000000000001 4.008L20.016000000000002 4.008 20.016000000000002 3.194112C20.016000000000002 2.264352 19.998984 2.119584 19.855344000000002 1.8269520000000001C19.788144 1.6900320000000002 19.717008 1.5955920000000001 19.572768 1.451664C19.351944 1.23132 19.171584000000003 1.125456 18.897696 1.0554000000000001C18.714792 1.0086240000000002 18.603024 1.008024 10.51416 1.0098960000000001C3.80784 1.0114800000000002 2.289432 1.0176 2.1700320000000004 1.043568M3.258744 1.798536C2.744256 1.999656 2.605128 2.642832 2.991648 3.033288C3.353184 3.39852 3.97344 3.2856240000000003 4.203936 2.812632C4.28796 2.640168 4.283040000000001 2.362896 4.1926559999999995 2.178864C4.023888 1.835184 3.6031920000000004 1.663872 3.258744 1.798536M5.287032 1.785336C5.108256 1.8437519999999998 4.929816 2.00124 4.8353280000000005 2.184C4.772256 2.305992 4.7593440000000005 2.60148 4.810392 2.755128C4.889616 2.99364 5.133312 3.198552 5.386872 3.239808C5.840256 3.3136080000000003 6.229080000000001 3.007368 6.258744 2.553096C6.273504000000001 2.32716 6.2227440000000005 2.175384 6.078888 2.0153760000000003C5.928816 1.848456 5.769312 1.770696 5.556 1.760424C5.456208 1.7556239999999999 5.347008 1.7657280000000002 5.287032 1.785336M7.23816 1.8099600000000002C6.549408 2.100336 6.650472000000001 3.107568 7.381488 3.23844C7.64772 3.2860799999999997 7.880064000000001 3.2087760000000003 8.061216 3.0122400000000003C8.208312 2.8526640000000003 8.261327999999999 2.718648 8.261327999999999 2.506488C8.261327999999999 2.289984 8.188488000000001 2.115144 8.036376 1.9666560000000002C7.897488 1.831056 7.754424 1.770288 7.548 1.7591999999999999C7.409592 1.75176 7.355016 1.7606879999999998 7.23816 1.8099600000000002M16.992 11.01468C15.7344 11.12088 14.611872 11.549520000000001 13.566096 12.322848C13.228368000000001 12.572591999999998 12.572591999999998 13.228368000000001 12.322848 13.566096C11.629344 14.50392 11.232384000000001 15.45384 11.061696 16.584C10.999584 16.995216 10.986312 17.859816 11.036256 18.240000000000002C11.270328 20.021688 12.086328 21.485927999999998 13.464 22.596408C15.015744 23.847192 17.162112 24.302736000000003 19.116 23.795976C21.2766 23.2356 22.977912 21.641928 23.676503999999998 19.524C23.877744 18.913872 23.969544 18.386544 23.99196 17.712C24.063144 15.569064000000001 23.105496000000002 13.578192000000001 21.381287999999998 12.284616C20.498712 11.62248 19.450968 11.199311999999999 18.325968 11.050608C17.999928 11.007504 17.300064 10.98864 16.992 11.01468M17.1 12.014472C16.590672 12.067056 16.238136 12.135624 15.857184 12.256272000000001C14.143128 12.799032 12.810456 14.123544 12.26592 15.825552C12.079872 16.407048 12.013992000000002 16.843872 12.013992000000002 17.496C12.013992000000002 18.190176 12.088128000000001 18.646752 12.304344 19.284C12.693216000000001 20.430168 13.484231999999999 21.439584 14.532528000000001 22.127448C15.022319999999999 22.448856000000003 15.79728 22.762536 16.397256000000002 22.882224C17.181624 23.038704000000003 18.092015999999997 23.021856 18.816 22.837464C20.966184000000002 22.289808 22.554912 20.5674 22.923816 18.384C22.985328 18.02004 23.00724 17.352408 22.969896 16.98C22.866288 15.946416 22.48332 14.973576 21.855336 14.148624C21.65844 13.889976 21.232008 13.45308 20.965416 13.236888C20.201376 12.617256000000001 19.272864 12.209352 18.288 12.060696C18.042888 12.023688 17.293176 11.994528 17.1 12.014472M17.370336 14.015903999999999C17.246304000000002 14.053248 17.135472 14.140344 17.069784 14.252088L17.004 14.364 16.997328 15.954984000000001C16.993104000000002 16.965072000000003 16.999464 17.578464 17.014752 17.634984000000003C17.04756 17.756328 17.172264 17.900952 17.290296 17.954568C17.3808 17.99568 17.470344 17.998992 18.506232 17.999472L19.62444 18 19.730232 17.944152C19.883496 17.863248000000002 19.974432 17.722535999999998 19.987152000000002 17.546664C19.992792 17.468808 19.984824 17.367 19.969464000000002 17.320464C19.933439999999997 17.211288 19.75896 17.050848000000002 19.640520000000002 17.017944C19.58364 17.002152 19.249848 16.992216 18.774 16.992144L18 16.992 17.999472 15.69C17.998872 14.224632 18.004152 14.270112 17.817096 14.115816C17.680512 14.003160000000001 17.526816 13.968768 17.370336 14.015903999999999" stroke="none" fill="currentColor" fill-rule="evenodd" stroke-width="0.024"></path>
</symbol>
<symbol id="hf-design-tool-compass-streamline-ultimate" xmlns="http://www.w3.org/2000/svg" aria-hidden="true">
<path d="M11.592 0.034152C10.802376 0.158424 10.178016 0.474192 9.622512 1.030248C9.08364 1.569624 8.765616 2.181216 8.63904 2.9216159999999998C8.595528 3.176088 8.592 3.317256 8.592 4.800528L8.592 6.404304000000001 7.680168 9.364152C7.1786639999999995 10.992072 6.751056 12.3618 6.729912000000001 12.408C6.622248000000001 12.643296 6.40164 12.84024 6.132000000000001 12.941784L5.988 12.996 3.36 13.008000000000001L0.732 13.02 0.6 13.082736C0.328512 13.211808 0.129768 13.432896 0.048384 13.696439999999999C0.003288 13.842384 0.000024 13.917936 0.000288 14.80452C0.000576 15.805104000000002 0.0075840000000000005 15.884304 0.11390400000000002 16.092264C0.177696 16.217015999999997 0.37658400000000003 16.418328 0.509328 16.492536C0.6226320000000001 16.555848 0.7631519999999999 16.597368 0.9420000000000001 16.620312000000002L1.056 16.634952000000002 1.05648 17.695464C1.05684 18.519096 1.065216 18.814968 1.093968 19.02C1.11432 19.1652 1.135224 19.363128 1.140384 19.459824C1.1473680000000002 19.590552000000002 1.1677920000000002 19.673664 1.219968 19.783824C1.25856 19.865328 1.308576 19.991400000000002 1.331112 20.064C1.353672 20.1366 1.399656 20.266199999999998 1.4333280000000002 20.352C1.531536 20.602248 2.827224 23.280528 2.911416 23.40732C3.008232 23.553096 3.227304 23.703552000000002 3.375 23.725704C3.63276 23.764368 3.8527919999999996 23.684088 4.021152 23.489928C4.1254800000000005 23.369664 5.408496 20.851248000000002 5.591664 20.407248C5.733144 20.064336 5.85876 19.635072 5.930904 19.248C5.9778 18.996408000000002 5.983296 18.868512 5.993136 17.802L6.0039359999999995 16.632 6.919968 16.631832000000003C7.915128000000001 16.63164 8.132808 16.613544 8.443344 16.505088C8.7366 16.402704 8.964336000000001 16.257336000000002 9.203327999999999 16.02C9.588887999999999 15.63708 9.483048 15.909672 10.925184 11.586C11.628528 9.477312 12.2094 7.752408 12.216000000000001 7.752888C12.2226 7.753368000000001 13.9128 10.70448 15.972 14.310888C19.613064 20.687736 19.720608000000002 20.872632 19.884 21.03624C20.272104000000002 21.42492 20.862047999999998 21.5652 21.384 21.392976C21.496199999999998 21.355944 21.595848 21.325296 21.605424 21.32484C21.615000000000002 21.324384 21.95316 21.8802 22.356912 22.56C22.760640000000002 23.239800000000002 23.114616 23.821728 23.143488 23.853168C23.316864 24.041904 23.674344 24.041688 23.8554 23.852736C23.979864 23.722872 24.033912 23.492328 23.97576 23.3394C23.96244 23.304336 23.62224 22.720968 23.21976 22.043015999999998C22.817304 21.365088 22.488 20.801184 22.488 20.789904C22.488 20.778624 22.52664 20.732208 22.573895999999998 20.686704000000002C22.71276 20.552976 22.881287999999998 20.28084 22.944864 20.087664C22.994976 19.935432000000002 23.004 19.862208 23.004 19.608C23.004 19.358448 22.994856000000002 19.281528 22.949568 19.150584000000002C22.915344 19.051632 21.541056 16.651368 19.249464 12.688248000000002L15.603792 6.383376 15.593808 4.757688C15.582624 2.936784 15.581784 2.9262960000000002 15.408 2.397024C15.020256000000002 1.216224 14.030088 0.33412800000000004 12.796776 0.07077599999999999C12.496848 0.006744000000000001 11.884536 -0.01188 11.592 0.034152M11.710056 1.03224C11.121696 1.13184 10.554048 1.452432 10.185024 1.8935760000000001C9.94152 2.184648 9.776304 2.504328 9.665808 2.898192C9.615384 3.077952 9.613416 3.1314720000000005 9.605640000000001 4.54176L9.5976 5.999544 12.09648 5.999544L14.595384 5.999544 14.585496000000001 4.577784C14.576952000000002 3.348888 14.570088 3.1324560000000004 14.534904 2.98248C14.296944 1.967856 13.515384 1.21896 12.511872 1.043952C12.296064000000001 1.00632 11.89764 1.000512 11.710056 1.03224M3.0025920000000004 3.0492480000000004C1.963632 3.274104 1.205424 4.066848 1.02972 5.112C1.01688 5.188296 1.00764 6.59112 1.007808 8.436L1.0081200000000001 11.628 1.063368 11.735784C1.094856 11.7972 1.162824 11.874624 1.221384 11.915784C1.3129680000000001 11.980152 1.3432320000000002 11.988 1.5 11.988C1.656696 11.988 1.687008 11.980152 1.7780880000000001 11.916C1.8343200000000002 11.8764 1.9054560000000003 11.796408 1.936152 11.738232L1.992 11.63244 1.992 9.308232L1.992 6.984 3.492 6.984L4.992 6.984 4.992144 9.27C4.992216 10.67916 5.00124 11.588208 5.01564 11.64C5.0708400000000005 11.838336 5.285760000000001 11.998944 5.496 11.998944C5.705856 11.998944 5.919048 11.842416 5.976192 11.646408000000001C5.994912 11.582112 6.000168 10.623408 5.994312 8.328C5.9850959999999995 4.709808 6.000288 5.016 5.806464 4.541328C5.508264 3.811056 4.8388800000000005 3.244656 4.056 3.060144C3.7747200000000003 2.993856 3.282072 2.988768 3.0025920000000004 3.0492480000000004M3.15444 4.041936C2.745864 4.135248 2.3474640000000004 4.453224 2.15952 4.836C2.0469600000000003 5.065200000000001 2.011848 5.2478880000000006 2.007696 5.625528L2.004 5.964 3.498 5.970192L4.992 5.97636 4.992 5.644032C4.992 5.098992 4.8858239999999995 4.79784 4.58028 4.476168C4.40172 4.288176 4.229928 4.174752000000001 3.989808 4.086288C3.787512 4.011768 3.380976 3.9901920000000004 3.15444 4.041936M9.398472 7.206C8.6622 9.618768 7.671696 12.785952000000002 7.62396 12.880176C7.34892 13.42296 6.817296 13.833936 6.235008 13.953888000000001C6.0729120000000005 13.987295999999999 5.738232 13.992 3.529008 13.992L1.008 13.992 1.008 14.807712000000002L1.008 15.623424 4.4117999999999995 15.623664C6.76044 15.623832000000002 7.859352 15.61584 7.956696 15.59784C8.221608 15.548856 8.49156 15.372576 8.636376 15.153936C8.689416000000001 15.073872 9.075288 13.946112 10.042728 11.043792C10.776024 8.843904 11.376 7.035888 11.376 7.026C11.376 7.016088 10.944647999999999 7.008 10.417463999999999 7.008L9.458904 7.008 9.398472 7.206M12.967704000000001 7.026C12.973488 7.035912000000001 14.671296 10.0086 16.740576 13.632C18.952344 17.504832 20.538432 20.257392 20.589048 20.31072C20.70204 20.429784 20.86428 20.480856000000003 21.020688 20.446656C21.193584 20.408832 21.835104 20.01348 21.922344000000002 19.891008000000003C22.002096 19.779048 22.031208 19.589088 21.98772 19.464384C21.97344 19.423416 20.350896 16.603944000000002 18.382032 13.198944000000001L14.802312 7.008 13.879752 7.008C13.372319999999998 7.008 12.961896 7.016088 12.967704000000001 7.026M2.0681760000000002 17.79C2.072472 18.426912 2.0847360000000004 18.961512 2.095416 18.978C2.1105840000000002 19.001448 2.4235439999999997 19.008 3.5266080000000004 19.008L4.938408 19.008 4.957224 18.954C4.967568 18.924312 4.980384 18.389688 4.985688 17.766000000000002L4.995336 16.632 3.527856 16.632L2.060352 16.632 2.0681760000000002 17.79M2.3922480000000004 20.034C2.410008 20.084616 3.24924 21.83448 3.402264 22.139928L3.510456 22.35588 4.083216 21.209064C4.3982399999999995 20.578295999999998 4.656 20.046432 4.656 20.027112C4.656 19.996776 4.500696 19.992 3.516744 19.992C2.442144 19.992 2.378352 19.994376000000003 2.3922480000000004 20.034" stroke="none" fill="currentColor" fill-rule="evenodd" stroke-width="0.024"></path>
</symbol>
<symbol id="hf-legal" xmlns="http://www.w3.org/2000/svg" aria-hidden="true">
<path d="M10.716000000000001 0.014352C8.465904 0.141504 6.819960000000001 0.41152799999999995 4.896 0.969096C3.860808 1.269096 2.498904 1.762776 2.065824 1.9949759999999999C1.6033920000000002 2.242944 1.2792 2.630616 1.095936 3.154824L1.02 3.372 1.02 7.788C1.02 12.451368 1.016904 12.30288 1.130568 13.104000000000001C1.4586 15.416256000000002 2.452536 17.645592 3.9715439999999997 19.476C5.2688880000000005 21.039336000000002 7.0142880000000005 22.325232 8.891208 23.100552C9.315216000000001 23.27568 10.792200000000001 23.8134 11.004719999999999 23.869992C11.64336 24.040056 12.35664 24.040056 12.995280000000001 23.869992C13.2078 23.8134 14.684784 23.27568 15.108792000000001 23.100552C16.983408 22.326192000000002 18.735576000000002 21.035328 20.028576 19.476C21.549120000000002 17.64228 22.53864 15.422616000000001 22.869216 13.104000000000001C22.983072 12.305376 22.98 12.45264 22.98 7.788L22.98 3.372 22.904064 3.154824C22.7208 2.630616 22.396584 2.242896 21.934176 1.995C21.636408000000003 1.8353760000000001 20.621351999999998 1.447272 19.836000000000002 1.1928C17.947512 0.5808719999999999 16.124760000000002 0.22524 14.016167999999999 0.05736C13.581624 0.022751999999999998 11.132064 -0.009168 10.716000000000001 0.014352M10.512 1.034688C8.042159999999999 1.164816 5.595744 1.6864560000000002 3.2640000000000002 2.580168C2.4960240000000002 2.874504 2.337624 2.9685840000000003 2.169936 3.229968C2.126904 3.297048 2.071968 3.415848 2.047848 3.4939679999999997C2.006112 3.62916 2.004 3.8331600000000003 2.004 7.728C2.004 11.942112000000002 2.006088 12.051120000000001 2.1011040000000003 12.789888000000001C2.157528 13.228584000000001 2.250312 13.702272 2.376528 14.196C3.0294719999999997 16.75008 4.485936 18.967512 6.588 20.607768C7.3878960000000005 21.231912 8.332320000000001 21.778176 9.314447999999999 22.184736C9.695400000000001 22.342416 11.097719999999999 22.85172 11.327184 22.915728C11.537088 22.974263999999998 11.592696 22.97952 12 22.97952C12.408192000000001 22.97952 12.462624 22.974336 12.674760000000001 22.9152C12.902688 22.851648 14.294160000000002 22.345944 14.686368 22.184112C16.873104 21.281832 18.759624 19.726128000000003 20.051232 17.76C20.969808 16.361736 21.583752 14.779776 21.849888 13.125216C21.999503999999998 12.195192 22.012104 11.720976 22.003296 7.356C21.996096 3.7925039999999997 21.9936 3.605688 21.951504 3.481128C21.927167999999998 3.409152 21.87228 3.2957520000000002 21.829536 3.2291279999999998C21.662424 2.968656 21.503400000000003 2.874288 20.736 2.580168C18.359664 1.6693680000000002 15.982560000000001 1.1668560000000001 13.416 1.032768C12.876743999999999 1.004592 11.060448 1.005792 10.512 1.034688M11.616 5.00832C10.746192 5.07216 9.816912 5.37276 9.108 5.819616C7.931472 6.561191999999999 7.089912 7.67244 6.708768 8.987664C6.40632 10.031352 6.43764 11.234856 6.794568000000001 12.284352C6.915792000000001 12.640824 7.198344 13.215144 7.404432 13.524000000000001C8.307744 14.877839999999999 9.712056 15.75108 11.328 15.96384C11.62152 16.00248 12.37848 16.00248 12.672 15.96384C13.421688 15.865128 14.172287999999998 15.609264 14.78784 15.242616000000002C16.293312 14.345832000000001 17.283 12.811344000000002 17.47068 11.082936C17.52744 10.560431999999999 17.498231999999998 10.294704000000001 17.368848 10.155984C17.236392 10.014 16.962936 9.962592 16.7862 10.046472C16.577016 10.145712 16.488 10.33968 16.488 10.696104C16.488 10.90956 16.432199999999998 11.312424 16.366848 11.570784C16.030296 12.901416 15.099 14.025216 13.872 14.581439999999999C12.781848 15.0756 11.586 15.12888 10.492152 14.732016C8.911032 14.158344000000001 7.79292 12.790824 7.5494639999999995 11.132928C7.501080000000001 10.803431999999999 7.5009120000000005 10.198296 7.5491280000000005 9.867072C7.741776000000001 8.543448 8.508216000000001 7.378343999999999 9.65472 6.666216C9.889272 6.520536000000001 10.319664 6.322463999999999 10.620696 6.221688C10.986792000000001 6.099144 11.589024 6 11.967312 6C12.444287999999998 6 12.679584 5.478312 12.350856 5.149584C12.204264 5.002992 12.061752 4.9755840000000005 11.616 5.00832M16.844160000000002 5.02548C16.795824 5.0427360000000006 16.729128 5.077368 16.695936 5.102424C16.66272 5.127504 15.576312000000001 6.419688000000001 14.281680000000001 7.974C12.987048 9.528312 11.922288 10.8 11.915544 10.8C11.9088 10.8 11.537952 10.525751999999999 11.091432 10.190592C10.644936 9.855408 10.246032 9.563808 10.204992 9.542592C10.093392 9.484872 9.892848 9.492744 9.765768 9.559848C9.607872 9.6432 9.520224 9.782352000000001 9.509568000000002 9.966504C9.493536 10.243704000000001 9.490608 10.240656000000001 10.512 11.009256C11.007 11.381736 11.466000000000001 11.710368 11.532 11.739528C11.617128000000001 11.777136 11.714784 11.795520000000002 11.868 11.802719999999999C12.119712 11.814576 12.307416 11.76408 12.495263999999999 11.633976C12.624047999999998 11.544744 17.408112 5.825592 17.463383999999998 5.694768000000001C17.510808 5.582472 17.504304 5.390352 17.449416 5.282760000000001C17.330736 5.050152 17.077032 4.942296 16.844160000000002 5.02548" stroke="none" fill="currentColor" fill-rule="evenodd" stroke-width="0.024"></path>
</symbol>
<symbol id="hf-navigation" xmlns="http://www.w3.org/2000/svg" aria-hidden="true">
<path d="M11.040000000000001 0.035904C8.42748 0.257088 6.065112 1.2541920000000002 4.104024 2.963448C-0.015168000000000001 6.55368 -1.182792 12.51072 1.276704 17.388C3.326592 21.452952000000003 7.457352 24 12 24C13.889111999999999 24 15.703296 23.569944 17.388 22.722792000000002C19.507656 21.656928 21.267984000000002 19.983552 22.444584000000003 17.916C23.304456000000002 16.404984000000002 23.866968 14.548704 23.966616000000002 12.89328C23.975592 12.744384 23.992176 12.616848000000001 24.003456 12.609863999999998C24.01476 12.60288 24.023832000000002 12.314304 24.02364 11.968584C24.023424000000002 11.622864 24.014256000000003 11.354208 24.00324 11.37156C23.99148 11.390136 23.976504 11.28636 23.96688 11.11956C23.871456000000002 9.46524 23.307912 7.601088 22.444584000000003 6.0840000000000005C21.586632 4.576392 20.380488 3.236952 18.982008 2.238768C17.382792000000002 1.09728 15.546792 0.3672 13.620000000000001 0.106584C12.849120000000001 0.002304 11.782104 -0.026928000000000004 11.040000000000001 0.035904M11.172 1.0338C9.276432 1.184568 7.486992000000001 1.7991119999999998 5.916 2.8388880000000003C4.753512 3.60828 3.60828 4.753512 2.8388880000000003 5.916C1.297152 8.24544 0.69912 11.049312 1.154784 13.812000000000001C1.403136 15.317616000000001 1.9851839999999998 16.79412 2.8388880000000003 18.084C3.60828 19.246488 4.753512 20.39172 5.916 21.161112C8.245104 22.702632 11.049719999999999 23.300808 13.812000000000001 22.845216C15.806016 22.51632 17.710056 21.615528 19.224 20.284824C20.708664 18.979872 21.768384 17.402808 22.404287999999998 15.552C22.993560000000002 13.836936 23.1444 12.00192 22.845216 10.188C22.523136 8.235264 21.639696 6.343392 20.351616 4.848C20.07108 4.522320000000001 19.572984 4.021920000000001 19.224 3.715176C17.580744 2.270808 15.493416 1.3416 13.308 1.081584C12.696264 1.0087920000000001 11.75196 0.987672 11.172 1.0338M16.935648 5.933088C16.830192 5.946432 15.855048 6.33756 13.015416 7.5054240000000005C9.681504 8.876592 9.225216000000001 9.070368 9.147792 9.147792C9.070368 9.225192 8.875896000000001 9.683016 7.501368 13.023792L5.942760000000001 16.812 5.932536 17.033424C5.923944 17.22 5.930976 17.279328 5.977248 17.410415999999998C6.12024 17.815488000000002 6.486696 18.075120000000002 6.9143040000000004 18.074352C7.0120320000000005 18.074160000000003 7.140599999999999 18.058944 7.2 18.040536C7.306056 18.007632 14.620512 15.002592 14.733984000000001 14.94528C14.808288 14.907768 14.907744 14.808312 14.945304 14.733984000000001C14.961408000000002 14.702088 15.668088000000001 12.9912 16.515696000000002 10.932L18.056784 7.188 18.067224000000003 6.966576C18.076056 6.7796400000000006 18.06912 6.720912 18.022752 6.589583999999999C17.861856 6.133848 17.426448 5.8708800000000005 16.935648 5.933088M13.719263999999999 8.304648C11.899464 9.055296 10.406808 9.673200000000001 10.402248 9.677760000000001C10.397688 9.68232 11.277312 10.56936 12.356976000000001 11.648976000000001L14.320008000000001 13.611912 15.682608 10.303944000000001C16.432032 8.484576 17.050584 6.982512 17.05716 6.966C17.063760000000002 6.9495119999999995 17.059872 6.936864 17.048568 6.93792C17.037264 6.938976000000001 15.539064 7.554023999999999 13.719263999999999 8.304648M9.641568000000001 10.479624000000001C9.620904 10.530432 9.00372 12.029136 8.270064 13.810056C7.536408 15.591000000000001 6.939456 17.051472 6.943536000000001 17.055552000000002C6.950328 17.06232 13.582704000000001 14.337288 13.598952 14.321040000000002C13.602863999999999 14.317152 12.722496000000001 13.430424 11.642592 12.350591999999999L9.679128 10.387224 9.641568000000001 10.479624000000001M0.010488 12C0.010488 12.349800000000002 0.013848 12.492912 0.017928 12.318C0.022032000000000003 12.143088 0.022032000000000003 11.856912000000001 0.017928 11.682C0.013848 11.507088 0.010488 11.6502 0.010488 12" stroke="none" fill="currentColor" fill-rule="evenodd" stroke-width="0.024"></path>
</symbol>
<symbol id="hf-design-leistungen" xmlns="http://www.w3.org/2000/svg" aria-hidden="true">
<path d="M13.088952 0.047496000000000003C12.59928 0.175872 12.258023999999999 0.505008 12.068184 1.032L12.012 1.188 12.005400000000002 11.94C11.999448 21.609456 12.002568 22.70916 12.03624 22.862448C12.147816 23.370216 12.488976000000001 23.736552 13.032 23.931672000000002L13.188 23.987712000000002 15.431040000000001 23.994576000000002C17.900807999999998 24.002112 17.87064 24.003648000000002 18.181056 23.855496000000002C18.563664 23.67288 18.82752 23.339807999999998 18.950616 22.884C18.9948 22.720416 18.996 22.433472 18.996 11.976C18.996 1.815408 18.99372 1.227792 18.953927999999998 1.083816C18.807672 0.554592 18.426216 0.190776 17.867928 0.047976000000000005C17.686824 0.0016560000000000001 17.603856 0.000048 15.470160000000002 0.00132C13.39128 0.002568 13.249848 0.0053040000000000006 13.088952 0.047496000000000003M13.246104 1.063752C13.16724 1.105464 13.123944 1.1515199999999999 13.074336 1.246488L13.008000000000001 1.373472 13.008000000000001 2.1867360000000002L13.008000000000001 3 13.806000000000001 3.000528C14.531496 3.001008 14.612712000000002 3.005088 14.700000000000001 3.045504C15.128231999999999 3.243768 15.079248000000002 3.867864 14.626464 3.981888C14.5626 3.9979679999999997 14.231712000000002 4.008 13.765368 4.008L13.008000000000001 4.008 13.008000000000001 5.508L13.008000000000001 7.008 13.820231999999999 7.008C14.624160000000002 7.008 14.63352 7.008576000000001 14.738232 7.063848C14.796408000000001 7.094544 14.8764 7.16568 14.916 7.2219120000000006C14.980152 7.312992 14.988 7.343304 14.988 7.5C14.988 7.656696 14.980152 7.687008 14.916 7.778088C14.8764 7.83432 14.796408000000001 7.905456 14.738232 7.936152C14.63352 7.991424 14.624160000000002 7.992 13.820231999999999 7.992L13.008000000000001 7.992 13.008000000000001 9.492L13.008000000000001 10.992 13.782 10.992144C14.210184 10.992216 14.593536 11.002704000000001 14.64 11.015640000000001C14.757408000000002 11.048304 14.902008 11.174568 14.954568 11.290296C15.070512 11.54556 14.946384 11.852616 14.682768000000001 11.962728C14.608224000000002 11.99388 14.463192000000001 12 13.800768000000001 12L13.008000000000001 12 13.008000000000001 13.5L13.008000000000001 15 13.800768000000001 15C14.663687999999999 15 14.697312000000002 15.004512 14.841023999999999 15.139272C15.123696 15.404328 15.000623999999998 15.887664000000001 14.626464 15.981888000000001C14.5626 15.997968 14.231712000000002 16.008 13.765368 16.008L13.008000000000001 16.008 13.008000000000001 17.508L13.008000000000001 19.008 13.820231999999999 19.008C14.624160000000002 19.008 14.63352 19.008576 14.738232 19.063848C14.796408000000001 19.094544 14.8764 19.165680000000002 14.916 19.221912C14.980152 19.312992 14.988 19.343304 14.988 19.5C14.988 19.656696 14.980152 19.687008000000002 14.916 19.778088C14.8764 19.834319999999998 14.796408000000001 19.905456 14.738232 19.936152C14.63352 19.991424000000002 14.624160000000002 19.992 13.820231999999999 19.992L13.008000000000001 19.992 13.008000000000001 21.320232L13.008000000000001 22.64844 13.063752 22.753896C13.105464000000001 22.83276 13.151520000000001 22.876056 13.246488000000001 22.925664L13.373472 22.992 15.49116 22.992C17.008152 22.992 17.631984000000003 22.984272 17.690424 22.964736000000002C17.793936 22.930128 17.896608 22.835784 17.947968 22.728C17.985167999999998 22.649952000000003 17.988 21.887688 17.988 11.988C17.988 2.117496 17.985072000000002 1.326696 17.94828 1.26C17.890224 1.154736 17.80836 1.086456 17.690304 1.044816C17.59956 1.0128000000000001 17.310096 1.008 15.468768 1.008L13.351560000000001 1.008 13.246104 1.063752M7.32876 3.290136C7.2081360000000005 3.325104 7.0284 3.4592159999999996 6.94572 3.576C6.903648 3.6353999999999997 6.515544 4.4778 6.08328 5.448C5.6509920000000005 6.418200000000001 5.231328 7.3578 5.150664 7.5360000000000005L5.0040000000000004 7.86 5.0040000000000004 14.82C5.0040000000000004 20.380584000000002 5.010192 21.812640000000002 5.034768000000001 21.942384C5.260656 23.134439999999998 6.297672 24 7.5 24C8.701584 24 9.739488 23.133696 9.965232 21.942384C9.989808 21.812640000000002 9.996 20.380584000000002 9.996 14.82L9.996 7.86 9.087912000000001 5.82C8.588448 4.698 8.151456 3.7276320000000003 8.1168 3.663648C7.954896000000001 3.3645840000000002 7.619808000000001 3.205776 7.32876 3.290136M7.0141919999999995 5.836992C6.748296 6.434832 6.523728 6.942528 6.515136 6.965159999999999C6.500520000000001 7.003632 6.564696 7.0063200000000005 7.497744 7.0063200000000005C8.046792 7.0063200000000005 8.496 7.000032 8.496 6.992304C8.496 6.976776 7.571976000000001 4.892448 7.5263040000000005 4.804992C7.500288 4.7551440000000005 7.452168 4.852104 7.0141919999999995 5.836992M6.02808 8.052624C6.006936 8.09904 6 9.334464 6 13.057128L6 18 6.504048 18L7.00812 18 7.002048 13.002L6.996 8.004 6.52608 7.997496L6.05616 7.991016 6.02808 8.052624M8.008008 8.008008C7.9992 8.016792 7.992 10.268592 7.992 13.012008000000002L7.992 18 8.496 18L9 18 9 13.057128C9 9.357216000000001 8.992992000000001 8.098896 8.972136 8.053128000000001L8.944296 7.992 8.484143999999999 7.992C8.231064 7.992 8.016792 7.9992 8.008008 8.008008M6 19.5L6 19.992 7.5 19.992L9 19.992 9 19.5L9 19.008 7.5 19.008L6 19.008 6 19.5M6 21.307584000000002C6 21.476760000000002 6.011712 21.679272 6.0259920000000005 21.757584C6.130824 22.331712000000003 6.563664 22.802736000000003 7.116264000000001 22.944072000000002C7.969632 23.162328 8.816232000000001 22.621632 8.974008 21.757584C8.988288 21.679272 9 21.476760000000002 9 21.307584000000002L9 21 7.5 21L6 21 6 21.307584000000002" stroke="none" fill="currentColor" fill-rule="evenodd" stroke-width="0.024"></path>
</symbol>
<symbol id="hf-marketing-leistungen" xmlns="http://www.w3.org/2000/svg" aria-hidden="true">
<path d="M1.1280000000000001 3.038376C0.8813759999999999 3.091392 0.6411600000000001 3.222648 0.457296 3.4047840000000003C0.274224 3.5861520000000002 0.176928 3.74472 0.079776 4.0200000000000005L0.012 4.212 0.004968 11.892C-0.000024 17.326176 0.005544 19.625832000000003 0.024 19.75608C0.10919999999999999 20.357616 0.517296 20.795832 1.13784 20.952168C1.3260480000000001 20.999592 1.42008 21 12.024000000000001 21C22.632648000000003 21 22.721856000000002 20.999616 22.90752 20.95212C23.186784 20.880696 23.340144 20.794248 23.546424000000002 20.592C23.764056 20.37864 23.876544 20.174952 23.965152 19.833864L24.024144 19.606824 24.017712000000003 11.945424000000001C24.011736000000003 4.845168 24.008304 4.272072 23.970696 4.121112C23.866848 3.7041600000000003 23.589312 3.358536 23.208000000000002 3.1713120000000004C22.828344 2.98488 23.876184000000002 3.0006000000000004 11.976 3.0028319999999997C2.9154 3.004512 1.2601920000000002 3.009936 1.1280000000000001 3.038376M1.2486 4.06428C1.1682240000000002 4.1053679999999995 1.12596 4.148808 1.0806 4.23696L1.02 4.354704 1.0132320000000001 11.963352C1.008216 17.601648 1.013544 19.597920000000002 1.033824 19.67208C1.0691279999999999 19.801272 1.173264 19.906368 1.3132320000000002 19.95408C1.414056 19.988424000000002 2.425776 19.991952 12.034272 19.991471999999998C22.329048 19.990968 22.646928 19.989624 22.742376 19.94628C22.848144 19.898232 22.920168 19.8126 22.964328 19.682424C22.984992 19.621488 22.992 17.670768000000002 22.992 11.977512L22.992 4.354176 22.938 4.247088C22.895712000000003 4.163232 22.855728 4.125672 22.753704000000003 4.074L22.623383999999998 4.008 11.989704000000001 4.008672L1.356 4.0093440000000005 1.2486 4.06428M0.011856 12C0.011856 16.2306 0.014616 17.961312 0.018000000000000002 15.846C0.021384 13.730712000000002 0.021384 10.269312 0.018000000000000002 8.154C0.014616 6.038712 0.011856 7.769400000000001 0.011856 12M19.332 8.026872C19.2792 8.046216000000001 19.197744 8.102976 19.150992 8.153016000000001C19.10424 8.203056 18.247152 9.678840000000001 17.246376 11.432544C15.759528000000001 14.038008000000001 15.421296 14.615136000000001 15.396696 14.588544C15.380136000000002 14.570640000000001 14.987736000000002 14.100648000000001 14.524680000000002 13.544112C13.973016 12.88104 13.644383999999999 12.5058 13.571424 12.455592C13.380336 12.32412 13.221336 12.281736 12.96 12.292560000000002C12.692447999999999 12.303648 12.524376000000002 12.367968 12.355008000000002 12.524111999999999C12.29748 12.577128 11.872944 13.073736 11.411616 13.627656C10.704960000000002 14.476152 10.568664 14.628552 10.54632 14.595384C10.531728000000001 14.573712000000002 10.025064 13.729800000000001 9.420408 12.72C8.554608 11.274072 8.294736 10.858104 8.197224 10.762080000000001C7.80456 10.375344 7.195608 10.375344 6.802704000000001 10.762080000000001C6.7042079999999995 10.858992 6.405023999999999 11.34084 5.343408 13.112328L4.008 15.340656 4.008 15.480768000000001C4.008 15.653016 4.036536 15.732576 4.135464000000001 15.83604C4.340592 16.0506 4.62996 16.058904 4.836888 15.856176C4.907664 15.786864 5.3329439999999995 15.098496 6.2175839999999996 13.621392C7.426296 11.603184 7.497888 11.489640000000001 7.5305040000000005 11.538768C7.549488 11.567352000000001 8.05392 12.403728000000001 8.651496 13.397376000000001C9.269328 14.424743999999999 9.785184000000001 15.256535999999999 9.847416 15.325824C10.059096 15.561432000000002 10.401504000000001 15.68136 10.714488000000001 15.629496000000001C10.898184 15.599064 11.089224 15.516936 11.206944 15.41784C11.252568 15.379415999999999 11.671896 14.889000000000001 12.138768 14.328000000000001C12.605664 13.767 12.99492 13.305959999999999 13.003824000000002 13.303464000000002C13.012728000000001 13.300968 13.3656 13.715832 13.788 14.2254C14.210400000000002 14.734968 14.613168 15.214152 14.683032 15.290256000000001C14.91048 15.538032000000001 15.145512 15.635544 15.477072000000001 15.61968C15.647376000000001 15.611544 15.71424 15.595991999999999 15.847968 15.5334C16.160904 15.386976 16.079352 15.516048 18.12 11.937624000000001C20.113224000000002 8.442408 20.027231999999998 8.607312 19.982064 8.366520000000001C19.965 8.275656000000001 19.825512 8.102424000000001 19.729344 8.052696000000001C19.625328 7.998912000000001 19.44108 7.986936 19.332 8.026872" stroke="none" fill="currentColor" fill-rule="evenodd" stroke-width="0.024"></path>
</symbol>
<symbol id="hf-corporate-identity-ci" xmlns="http://www.w3.org/2000/svg" aria-hidden="true">
<path d="M11.16 0.035688000000000004C8.876280000000001 0.24621600000000002 6.793104 1.232544 5.228976 2.843832C4.709592 3.3788880000000003 4.367424 3.807312 3.992544 4.392C3.054624 5.854824 2.534304 7.561656 2.51328 9.24456L2.508 9.667152 2.581056 9.771576C2.788848 10.068552 3.2094720000000003 10.07028 3.416736 9.775056C3.4856400000000005 9.676919999999999 3.48816 9.663192 3.5067840000000006 9.283056C3.5629200000000005 8.137272 3.726456 7.32732 4.087224 6.408C4.789416 4.618704 6.068568 3.124536 7.721400000000001 2.162952C9.419903999999999 1.174752 11.330112000000002 0.8111520000000001 13.284 1.104072C14.443968 1.277976 15.42048 1.6409520000000002 16.515743999999998 2.305368C16.811328 2.484672 16.838136000000002 2.496 16.967208 2.496C17.431368 2.496 17.653272 1.923768 17.30448 1.626264C17.166048 1.5081600000000002 16.664832 1.2114 16.25448 1.0045199999999999C14.719848 0.230952 12.866064 -0.12160800000000001 11.16 0.035688000000000004M11.364 3.026928C10.141512 3.14268 8.915832 3.6444 7.92 4.436736C7.637544 4.661472000000001 7.1674560000000005 5.128776 6.950952 5.4C6.304368 6.210096000000001 5.840784 7.180704 5.639064 8.146752C5.500008 8.812631999999999 5.510424 8.201016000000001 5.50164 16.212C5.4958800000000005 21.483072 5.501040000000001 23.581512 5.519880000000001 23.646408C5.534352 23.696112 5.580696 23.776104 5.6228880000000006 23.824176C5.870928 24.10668 6.321168 24.031224 6.466728 23.682768000000003C6.500136 23.602776 6.5040000000000004 22.851312 6.504023999999999 16.422768C6.504023999999999 11.79396 6.5126159999999995 9.158424 6.52824 8.988C6.587112 8.345568 6.771960000000001 7.694352 7.066416000000001 7.0920000000000005C7.351152 6.50952 7.633464 6.112248 8.095368 5.644008C8.558760000000001 5.174304 8.963784 4.880496000000001 9.552840000000002 4.5868079999999996C11.085647999999999 3.8226 12.865704000000001 3.812352 14.394504 4.558968C14.962439999999999 4.836336 15.345528000000002 5.103504 15.789743999999999 5.5319519999999995C16.308 6.031872 16.633008 6.475512 16.932503999999998 7.0920000000000005C17.196936 7.636272 17.336952 8.076960000000001 17.4396 8.688C17.478288 8.918376 17.483040000000003 9.250055999999999 17.494968 12.552L17.508 16.164 17.573472 16.264680000000002C17.772528 16.570800000000002 18.215184 16.57224 18.421872 16.267392L18.492 16.164 18.492 12.564C18.492 8.719104 18.49464 8.81472 18.3714 8.202816C17.982288 6.271056 16.713383999999998 4.605048 14.946624 3.706248C14.213232 3.333144 13.413216 3.10116 12.6 3.0257519999999998C12.283488 2.9964 11.680368000000001 2.996976 11.364 3.026928M19.220448 4.077096C19.072296 4.171056 19.004856 4.28712 18.991344 4.471488000000001C18.97896 4.640664 18.967776 4.61508 19.271160000000002 5.112C19.607592 5.663016 19.878432 6.255768 20.085504 6.894264000000001C20.25156 7.406280000000001 20.35512 7.878912000000001 20.452248 8.568C20.473824 8.721192 20.48436 10.625064 20.494488 16.212C20.506968 23.085048 20.511048 23.657496000000002 20.547864 23.724C20.679432000000002 23.961696 20.967 24.063 21.204216000000002 23.95524C21.32436 23.900664 21.445656 23.764896 21.480144 23.646408C21.519216 23.512128 21.499512 8.835048 21.45984 8.52C21.266904 6.988344 20.82768 5.706456 20.086199999999998 4.51104C19.813248 4.071 19.736040000000003 4.008 19.469472 4.008C19.356384 4.008 19.308408 4.021296 19.220448 4.077096M11.496 6.035688C10.003824000000002 6.258168 8.862552 7.359 8.549016 8.878176C8.516615999999999 9.035256 8.510256 9.434136 8.502288 11.808C8.495712000000001 13.769904 8.50068 14.581848 8.519616 14.646408000000001C8.621400000000001 14.99304 9.079488000000001 15.112128 9.344136 14.860728C9.502776 14.710032 9.490656000000001 14.933616 9.505104 11.892C9.519768 8.806896 9.507984 9.013344 9.695400000000001 8.554536C9.954264 7.920744 10.484232 7.40568 11.126088 7.164096000000001C11.666592 6.960624 12.333408000000002 6.960624 12.873912 7.164096000000001C13.586952000000002 7.4324639999999995 14.132736000000001 8.010192 14.384231999999999 8.762808000000001C14.500464000000001 9.110592 14.495832000000002 8.79324 14.495928 16.446768000000002C14.496 22.853544 14.499863999999999 23.602776 14.533272 23.682768000000003C14.678832000000002 24.031224 15.129072 24.10668 15.377112 23.824176C15.419304 23.776104 15.465648000000002 23.696112 15.480072000000002 23.646408C15.498888 23.581584000000003 15.503976000000002 21.504192 15.498000000000001 16.308C15.490344000000002 9.62112 15.486576000000001 9.044856000000001 15.449208 8.864495999999999C15.321912000000001 8.249712 15.035616000000001 7.660968 14.643408 7.20732C13.869576 6.312264000000001 12.66024 5.8620719999999995 11.496 6.035688M11.796 9.541608C11.756400000000001 9.562128000000001 11.689032000000001 9.612648 11.646288 9.653880000000001C11.483664 9.810768 11.494200000000001 9.491832 11.501448 14.041752L11.508000000000001 18.159504 11.574216 18.25956C11.610624 18.314568 11.685431999999999 18.389376000000002 11.740464 18.425784C11.824463999999999 18.481392 11.866056 18.492 12 18.492C12.133944000000001 18.492 12.175536000000001 18.481392 12.259536 18.425784C12.314568 18.389376000000002 12.389376000000002 18.314568 12.425784 18.25956L12.492 18.159504 12.498552 14.041752C12.505896 9.440328 12.519552000000001 9.804696 12.333336000000001 9.636456C12.280632 9.588816 12.21036 9.539544 12.177192 9.52692C12.08496 9.491856 11.876496 9.499896 11.796 9.541608M2.7960000000000003 12.045504000000001C2.678352 12.099960000000001 2.582688 12.198912 2.533272 12.317231999999999C2.499936 12.397056 2.496048 12.997079999999999 2.496528 18.005232C2.4970320000000004 23.403624 2.49864 23.607432000000003 2.541504 23.7C2.72832 24.103512 3.295392 24.092952 3.4667280000000003 23.682768000000003C3.5000640000000005 23.602944 3.503952 23.002920000000003 3.5034720000000004 17.994768C3.502968 12.596376000000001 3.5013599999999996 12.392567999999999 3.4584960000000002 12.3C3.34068 12.045504000000001 3.042984 11.931144 2.7960000000000003 12.045504000000001M8.84604 17.021808C8.724432 17.053944 8.55588 17.221272 8.521944000000001 17.343576C8.504328 17.406959999999998 8.496216 18.40308 8.496144 20.514768C8.496024 23.244096000000003 8.500224 23.603664000000002 8.533272 23.682768000000003C8.70756 24.100032000000002 9.292440000000001 24.100032000000002 9.466728 23.682768000000003C9.499776 23.603664000000002 9.503976000000002 23.244096000000003 9.503856 20.514768C9.503784 18.40308 9.495672 17.406959999999998 9.478056 17.343576C9.44136 17.211336 9.27708 17.055024 9.138024 17.020032C9.009456 16.987655999999998 8.97444 16.987848 8.84604 17.021808M17.796 18.541656C17.686944 18.598272 17.59092 18.697248000000002 17.541504 18.804000000000002C17.499192 18.895368 17.497056 19.013232 17.497056 21.252C17.497056 23.490768000000003 17.499192 23.608632 17.541504 23.7C17.565936 23.7528 17.617008000000002 23.825136 17.654976 23.860728C17.908248 24.098208 18.311472 24.017568 18.458496 23.7C18.500808 23.608632 18.502944 23.490768000000003 18.502944 21.252C18.502944 19.028256000000003 18.500568 18.894744 18.45924 18.803784C18.412319999999998 18.700512 18.271632 18.562848 18.175776 18.526392C18.08472 18.491784 17.875944 18.500184 17.796 18.541656M11.82 20.528015999999997C11.70312 20.5812 11.588280000000001 20.691167999999998 11.54112 20.795016C11.500032000000001 20.885448 11.497056 20.983680000000003 11.497056 22.248C11.497056 23.517312 11.499888 23.610144 11.541504 23.7C11.69748 24.036936 12.13344 24.101712000000003 12.377111999999999 23.824176C12.419304 23.776104 12.465696 23.696112 12.480192 23.646408C12.498336 23.584128 12.504264 23.1336 12.499272 22.198224000000003L12.492 20.840448 12.425784 20.74044C12.328488 20.593416 12.19272 20.512415999999998 12.027840000000001 20.502984C11.947728 20.498424 11.862456 20.508696 11.82 20.528015999999997" stroke="none" fill="currentColor" fill-rule="evenodd" stroke-width="0.024"></path>
</symbol>
<symbol id="hf-portfolio" xmlns="http://www.w3.org/2000/svg" aria-hidden="true">
<path d="M2.063112 2.532048C0.98328 2.680272 0.228072 3.4586639999999997 0.037368 4.62C0.001488 4.838544 -0.00132 5.33436 0.006096 10.164C0.01512 16.032984000000003 0.00096 15.526824000000001 0.16908 15.991488C0.420144 16.685328 1.100784 17.249208 1.898976 17.424623999999998L2.033952 17.454288 2.085984 17.649144C2.220768 18.153864 2.525424 18.620136000000002 2.933976 18.947015999999998C3.159768 19.127688 3.521112 19.319256000000003 3.771984 19.391328C4.0484160000000005 19.470744 4.043712 19.467192 4.078200000000001 19.621368C4.0952399999999995 19.697471999999998 4.13856 19.831968 4.174488 19.92024C4.521696 20.773416 5.278776000000001 21.361776 6.18 21.478800000000003C6.341952 21.499848 8.332728 21.505008 14.136000000000001 21.49944L21.876 21.492 22.115448 21.426000000000002C22.390224 21.350256 22.775664 21.169032 22.968 21.025128000000002C23.49624 20.629920000000002 23.8524 20.057616000000003 23.964672 19.423608C23.99796 19.235544 24.002904 18.408504 24.00912 11.988C24.012984000000003 8.0148 24.011496 5.6604 24.005832 6.756C23.996448 8.572776000000001 23.992536 8.731296 23.961336 8.558064C23.83404 7.851672000000001 23.395992 7.22376 22.764143999999998 6.841992000000001C22.590936 6.737328 22.274856 6.608688000000001 22.100736 6.5720160000000005L21.965472 6.543528 21.913728 6.349752C21.68232 5.48328 21.0102 4.821312 20.10816 4.571472L19.972344 4.533864 19.931664 4.348920000000001C19.844712 3.9537840000000006 19.660368000000002 3.5982000000000003 19.387824000000002 3.3000000000000003C19.076856 2.959752 18.626448 2.710128 18.075048 2.572488L17.82 2.5088160000000004 10.056000000000001 2.504712C3.77268 2.5014 2.248344 2.506608 2.063112 2.532048M2.22 3.5279280000000006C1.5767039999999999 3.625272 1.189128 4.01412 1.042992 4.7088C1.01628 4.835712 1.008 5.068128 1.008 5.68956L1.008 6.5040000000000004 10.008000000000001 6.5040000000000004L19.008 6.5040000000000004 19.007448 5.838C19.006848 5.1066 18.979632 4.657848 18.925104 4.480872C18.785256 4.02708 18.445800000000002 3.7213200000000004 17.913768 3.569976L17.724 3.516 10.032 3.51288C5.8014 3.5111760000000003 2.286 3.517944 2.22 3.5279280000000006M3.3240000000000003 4.270512C3.004968 4.348536 2.762064 4.647768 2.757264 4.968672C2.754264 5.168736 2.78928 5.294952 2.884056 5.4258C2.984808 5.5648800000000005 3.034488 5.606448 3.192 5.68344C3.466824 5.817792 3.836232 5.746824 4.040808 5.52036C4.196952 5.34756 4.235136 5.246328 4.2355920000000005 5.0040000000000004C4.235928 4.82148 4.22688 4.77012 4.177104 4.672704C4.0191360000000005 4.363488 3.651864 4.190352000000001 3.3240000000000003 4.270512M5.2609200000000005 4.2919920000000005C5.102112 4.34868 4.97856 4.446192 4.878336 4.59396C4.777176 4.743048 4.744104 4.872 4.757736 5.064C4.776672 5.330592 4.933896000000001 5.560344000000001 5.180136 5.68128C5.449368 5.813496000000001 5.808528 5.752128 6.02772 5.53644C6.243792000000001 5.323799999999999 6.309576 4.968288 6.183696 4.693344000000001C6.023352 4.343112 5.615112 4.16556 5.2609200000000005 4.2919920000000005M7.332 4.27032C7.116648 4.322424 6.915888 4.486464000000001 6.81516 4.692624C6.732792000000001 4.861248 6.733536000000001 5.143872 6.816792 5.316C6.978960000000001 5.6512080000000005 7.350048 5.82444 7.692672000000001 5.72484C8.043000000000001 5.622984 8.2446 5.3544480000000005 8.243400000000001 4.99128C8.242896 4.843104 8.230776 4.78596 8.176055999999999 4.67412C8.023032 4.361376 7.664568000000001 4.189896 7.332 4.27032M0.011784 10.044C0.011784 12.948 0.014592 14.132448 0.018000000000000002 12.676079999999999C0.021408 11.219736 0.021408 8.843736 0.018000000000000002 7.39608C0.014592 5.948448 0.011784 7.140000000000001 0.011784 10.044M19.992192000000003 10.408536000000002C19.991736 13.40952 19.982664 15.282336 19.968144 15.372C19.88484 15.886415999999999 19.69584 16.314192000000002 19.372416 16.72044C19.170768000000002 16.973736000000002 18.770496 17.240544 18.405288 17.36508C17.998632 17.503776 18.469944 17.496 10.460856000000001 17.496C5.080296000000001 17.496 3.096 17.503176 3.096 17.52264C3.096 17.607672 3.271128 17.865168 3.4550640000000006 18.050616C3.6747840000000003 18.272112 3.8790480000000005 18.391920000000002 4.152 18.459384C4.348776 18.508008 19.651224000000003 18.508008 19.848 18.459384C20.095176 18.398304 20.319936 18.272208 20.516616000000003 18.084312C20.725344 17.884872 20.857416 17.680104 20.934768000000002 17.436L20.988 17.268 20.988 12L20.988 6.732 20.934768000000002 6.564C20.905488000000002 6.4716 20.840784 6.327431999999999 20.79096 6.2436240000000005C20.6388 5.987688 20.272464000000003 5.673576 20.046456 5.605248L19.992912 5.589048 19.992192000000003 10.408536000000002M1.013592 11.442C1.0196880000000001 15.179304 1.0221600000000002 15.37836 1.063968 15.501503999999999C1.237968 16.013976 1.549632 16.293504 2.1165599999999998 16.445520000000002L2.316 16.498992 9.84 16.506528000000003C14.88024 16.511544 17.455632 16.505856 17.641560000000002 16.489248C18.08292 16.44984 18.341448 16.338912 18.575808 16.0884C18.736848000000002 15.916248000000001 18.862896 15.677784 18.941807999999998 15.396L18.995592 15.204 19.002432000000002 11.358L19.009272 7.5120000000000005 10.008216000000001 7.5120000000000005L1.00716 7.5120000000000005 1.013592 11.442M22.008 12.313344C22.008 15.509664 21.999696 17.11644 21.982344 17.271984000000003C21.859896 18.370152 21.056472 19.236816 19.946064 19.468536C19.846512 19.48932 17.916072 19.500072000000003 12.448920000000001 19.510272L5.08584 19.524 5.162976 19.68C5.2755600000000005 19.907688 5.594064 20.220288 5.832 20.336616000000003C6.182256 20.507856 5.52768 20.495160000000002 14.004 20.495160000000002C22.48704 20.495160000000002 21.829776 20.508048 22.176000000000002 20.334912C22.307184 20.26932 22.408176 20.192712 22.548336 20.052456C22.768704 19.831968 22.874472 19.651848 22.9446 19.377696C22.991088 19.195895999999998 22.992 19.092312 22.992 14.016576C22.992 10.401912000000001 22.984152 8.797872 22.965984000000002 8.698416C22.887432 8.268528 22.523208 7.818336 22.098 7.625568000000001L22.008 7.5847679999999995 22.008 12.313344" stroke="none" fill="currentColor" fill-rule="evenodd" stroke-width="0.024"></path>
</symbol>
<symbol id="hf-newsletter" xmlns="http://www.w3.org/2000/svg" aria-hidden="true">
<path d="M7.758024 5.522616C7.263408 5.6050320000000005 6.787344 6.02136 6.625536 6.513C6.59892 6.593856000000001 6.104592 8.9226 5.527032 11.688L4.4769120000000004 16.716 4.477128 17.016000000000002C4.477296 17.278464 4.48512 17.337552000000002 4.539648 17.488224000000002C4.673688 17.858688 4.947 18.167376 5.292 18.337944C5.65368 18.516744 5.004552 18.503111999999998 13.183008000000001 18.503591999999998C21.141096 18.504024 20.716824000000003 18.510528 21.012696000000002 18.383712000000003C21.383832 18.224616 21.713904 17.866128 21.83832 17.487000000000002C21.873816 17.378832000000003 23.579976000000002 9.230903999999999 23.977296 7.272C24.036288 6.981216000000001 24.035784 6.9580079999999995 23.964984 6.685416000000001C23.832816 6.176784 23.566536 5.843568 23.128368000000002 5.6385119999999995C22.804224 5.486832 23.355408 5.4966 15.264000000000001 5.499216C11.173224 5.500536 7.827840000000001 5.510976 7.758024 5.522616M0.3 6.539424C0.207552 6.582504 0.14076 6.640968 0.075864 6.735696C0.033408 6.797664 0.024 6.846024 0.024 7.002096000000001C0.024 7.175712 0.030432 7.201656000000001 0.09568800000000001 7.291752C0.135096 7.346159999999999 0.213408 7.415280000000001 0.269688 7.445352000000001L0.372 7.5 2.423064 7.506648C3.866328 7.511328 4.512432 7.505352 4.603416 7.486464C4.749936 7.456032 4.890552 7.346544 4.9535279999999995 7.2138C5.037408 7.037064000000001 4.986 6.7636080000000005 4.844016 6.631152C4.702920000000001 6.499536000000001 4.784688 6.503928 2.490768 6.504936C0.72816 6.505728 0.359904 6.511512 0.3 6.539424M8.452008 6.57C10.592640000000001 8.886864000000001 12.922272 11.392056 13.015824 11.477808000000001C13.44336 11.869632 14.1222 11.96676 14.646503999999998 11.711112C14.766143999999999 11.652768 22.004952000000003 6.6113040000000005 22.0908 6.526511999999999C22.105008 6.512496 19.525056 6.5040000000000004 15.252312000000002 6.5040000000000004L8.391024 6.5040000000000004 8.452008 6.57M6.494808000000001 11.999184C5.663568 15.990672 5.4678960000000005 16.96488 5.477448 17.064287999999998C5.49216 17.21736 5.589864 17.363808 5.724 17.433864L5.82 17.484 13.203936 17.484L20.587872 17.484 20.691936000000002 17.411376C20.752368 17.369184 20.818944000000002 17.293704 20.850696 17.231376C20.890128 17.153928 21.19332 15.736368 21.938064 12.147359999999999C22.506024 9.410207999999999 22.9674 7.1674560000000005 22.963368 7.163495999999999C22.959312 7.159511999999999 21.336000000000002 8.290128000000001 19.356 9.676008C15.287832000000002 12.523464 15.21924 12.570456 14.986368 12.66936C14.641584000000002 12.815784 14.45268 12.850871999999999 14.016 12.849576C13.664688 12.848544 13.592927999999999 12.841152000000001 13.38 12.784176C13.018968000000001 12.687576 12.700776 12.525096000000001 12.411 12.289392C12.353256000000002 12.242424 11.258280000000001 11.0754 9.977736 9.696C8.697168 8.3166 7.621224 7.158576 7.586712 7.122599999999999L7.524 7.057175999999999 6.494808000000001 11.999184M0.3 9.539424C0.20568 9.583368 0.140784 9.641064 0.069864 9.744C0.021912 9.8136 0.012 9.857448 0.012 9.99984C0.012 10.152528 0.020136 10.183296 0.085056 10.27584C0.125256 10.333128 0.206256 10.407 0.265056 10.44L0.372 10.5 1.872 10.507512C2.697 10.51164 3.4385039999999996 10.508184 3.5197680000000005 10.499832C3.9458159999999998 10.45608 4.152 9.988344 3.881184 9.67992C3.720576 9.496992 3.8073599999999996 9.505008 1.992 9.505464C0.6557040000000001 9.5058 0.3594 9.511752 0.3 9.539424M0.3 12.539064C0.205416 12.583608 0.140616 12.641304 0.069864 12.744C0.021912 12.8136 0.012 12.857448 0.012 12.999839999999999C0.012 13.152528000000002 0.020136 13.183296 0.085056 13.275839999999999C0.125256 13.333128 0.206256 13.407 0.265056 13.44L0.372 13.5 1.5 13.5L2.628 13.5 2.734944 13.44C2.7937440000000002 13.407 2.874744 13.333128 2.914944 13.275839999999999C2.980056 13.183008000000001 2.9879520000000004 13.152984000000002 2.987472 12.999839999999999C2.986992 12.853032 2.97744 12.814032000000001 2.921784 12.732000000000001C2.885952 12.6792 2.816808 12.609 2.768112 12.576L2.679576 12.516 1.525776 12.510576C0.5735760000000001 12.506112 0.359424 12.511104000000001 0.3 12.539064" stroke="none" fill="currentColor" fill-rule="evenodd" stroke-width="0.024"></path>
</symbol>
<symbol id="hf-map-pin" viewBox="0 0 24 24" xmlns="http://www.w3.org/2000/svg" aria-hidden="true">
<path d="M12 22s7-5.33 7-11a7 7 0 1 0-14 0c0 5.67 7 11 7 11Z" fill="none" stroke="currentColor" stroke-width="2" stroke-linecap="round" stroke-linejoin="round" />
<circle cx="12" cy="11" r="3" fill="none" stroke="currentColor" stroke-width="2" stroke-linecap="round" stroke-linejoin="round" />
</symbol>
<symbol id="hf-phone" viewBox="0 0 24 24" xmlns="http://www.w3.org/2000/svg" aria-hidden="true">
<path d="M22 16.92v3a2 2 0 0 1-2.18 2 19.88 19.88 0 0 1-8.63-3.07 19.5 19.5 0 0 1-6-6A19.88 19.88 0 0 1 2.08 4.18 2 2 0 0 1 4.06 2h3a2 2 0 0 1 2 1.72 12.84 12.84 0 0 0 .7 2.81 2 2 0 0 1-.45 2.11l-1.27 1.27a16 16 0 0 0 6 6l1.27-1.27a2 2 0 0 1 2.11-.45 12.84 12.84 0 0 0 2.81.7A2 2 0 0 1 22 16.92Z" fill="none" stroke="currentColor" stroke-width="2" stroke-linecap="round" stroke-linejoin="round" />
</symbol>
<symbol id="hf-arrow-right" viewBox="0 0 24 24" xmlns="http://www.w3.org/2000/svg" aria-hidden="true">
<path d="M5 12h14" fill="none" stroke="currentColor" stroke-width="2" stroke-linecap="round" stroke-linejoin="round" />
<path d="M13 18l6-6-6-6" fill="none" stroke="currentColor" stroke-width="2" stroke-linecap="round" stroke-linejoin="round" />
</symbol>
<symbol id="hf-search" viewBox="0 0 24 24" xmlns="http://www.w3.org/2000/svg" aria-hidden="true">
<circle cx="11" cy="11" r="7" fill="none" stroke="currentColor" stroke-width="2" stroke-linecap="round" stroke-linejoin="round" />
<path d="m21 21-4.35-4.35" fill="none" stroke="currentColor" stroke-width="2" stroke-linecap="round" stroke-linejoin="round" />
</symbol>
<symbol id="hf-layout-grid" viewBox="0 0 24 24" xmlns="http://www.w3.org/2000/svg" aria-hidden="true">
<rect x="3" y="3" width="7" height="7" rx="1" fill="none" stroke="currentColor" stroke-width="2" stroke-linecap="round" stroke-linejoin="round" />
<rect x="14" y="3" width="7" height="7" rx="1" fill="none" stroke="currentColor" stroke-width="2" stroke-linecap="round" stroke-linejoin="round" />
<rect x="14" y="14" width="7" height="7" rx="1" fill="none" stroke="currentColor" stroke-width="2" stroke-linecap="round" stroke-linejoin="round" />
<rect x="3" y="14" width="7" height="7" rx="1" fill="none" stroke="currentColor" stroke-width="2" stroke-linecap="round" stroke-linejoin="round" />
</symbol>
<symbol id="hf-panel-right-open" viewBox="0 0 24 24" xmlns="http://www.w3.org/2000/svg" aria-hidden="true">
<rect x="3" y="4" width="18" height="16" rx="2" fill="none" stroke="currentColor" stroke-width="2" stroke-linecap="round" stroke-linejoin="round" />
<path d="M15 4v16" fill="none" stroke="currentColor" stroke-width="2" stroke-linecap="round" stroke-linejoin="round" />
<path d="M10 10l2 2-2 2" fill="none" stroke="currentColor" stroke-width="2" stroke-linecap="round" stroke-linejoin="round" />
</symbol>
<symbol id="hf-facebook" viewBox="0 0 24 24" xmlns="http://www.w3.org/2000/svg" aria-hidden="true">
<path d="M18 2h-3a5 5 0 0 0-5 5v3H7v4h3v8h4v-8h3l1-4h-4V7a1 1 0 0 1 1-1h3Z" fill="none" stroke="currentColor" stroke-width="2" stroke-linecap="round" stroke-linejoin="round" />
</symbol>
<symbol id="hf-instagram" viewBox="0 0 24 24" xmlns="http://www.w3.org/2000/svg" aria-hidden="true">
<rect x="3" y="3" width="18" height="18" rx="5" fill="none" stroke="currentColor" stroke-width="2" stroke-linecap="round" stroke-linejoin="round" />
<circle cx="12" cy="12" r="4" fill="none" stroke="currentColor" stroke-width="2" stroke-linecap="round" stroke-linejoin="round" />
<circle cx="17" cy="7" r="1" fill="currentColor" />
</symbol>
<symbol id="hf-linkedin" viewBox="0 0 24 24" xmlns="http://www.w3.org/2000/svg" aria-hidden="true">
<path d="M4 4h4v16H4z" fill="none" stroke="currentColor" stroke-width="2" stroke-linecap="round" stroke-linejoin="round" />
<circle cx="6" cy="7" r="1.5" fill="currentColor" />
<path d="M11 10h3a3 3 0 0 1 3 3v7h-4v-6.5a1.5 1.5 0 0 0-3 0V20h-4v-10Z" fill="none" stroke="currentColor" stroke-width="2" stroke-linecap="round" stroke-linejoin="round" />
</symbol>
<symbol id="hf-twitter" viewBox="0 0 24 24" xmlns="http://www.w3.org/2000/svg" aria-hidden="true">
<path d="M22 5.92a8.94 8.94 0 0 1-2.6.74A4.13 4.13 0 0 0 21.4 4a8.27 8.27 0 0 1-2.7 1.05A4.14 4.14 0 0 0 12 8.18a4.34 4.34 0 0 0 .11.94A11.73 11.73 0 0 1 3.15 4.6a4.11 4.11 0 0 0-.56 2.08 4.16 4.16 0 0 0 1.84 3.44 4.06 4.06 0 0 1-1.88-.54v.06A4.18 4.18 0 0 0 6.1 13a4.09 4.09 0 0 1-1.87.07A4.16 4.16 0 0 0 8 15.54 8.32 8.32 0 0 1 2 17.46 11.73 11.73 0 0 0 8.29 19.3c7.55 0 11.68-6.46 11.68-12.06 0-.18 0-.36-.01-.54A8.6 8.6 0 0 0 22 5.92Z" fill="none" stroke="currentColor" stroke-width="2" stroke-linecap="round" stroke-linejoin="round" />
</symbol>
</defs>
</svg>
