<svg xmlns="http://www.w3.org/2000/svg" viewBox="0 0 24 24" version="1.1">
  <path d="M10.716000000000001 0.014352C8.465904 0.141504 6.819960000000001 0.41152799999999995 4.896 0.969096C3.860808 1.269096 2.498904 1.762776 2.065824 1.9949759999999999C1.6033920000000002 2.242944 1.2792 2.630616 1.095936 3.154824L1.02 3.372 1.02 7.788C1.02 12.451368 1.016904 12.30288 1.130568 13.104000000000001C1.4586 15.416256000000002 2.452536 17.645592 3.9715439999999997 19.476C5.2688880000000005 21.039336000000002 7.0142880000000005 22.325232 8.891208 23.100552C9.315216000000001 23.27568 10.792200000000001 23.8134 11.004719999999999 23.869992C11.64336 24.040056 12.35664 24.040056 12.995280000000001 23.869992C13.2078 23.8134 14.684784 23.27568 15.108792000000001 23.100552C16.983408 22.326192000000002 18.735576000000002 21.035328 20.028576 19.476C21.549120000000002 17.64228 22.53864 15.422616000000001 22.869216 13.104000000000001C22.983072 12.305376 22.98 12.45264 22.98 7.788L22.98 3.372 22.904064 3.154824C22.7208 2.630616 22.396584 2.242896 21.934176 1.995C21.636408000000003 1.8353760000000001 20.621351999999998 1.447272 19.836000000000002 1.1928C17.947512 0.5808719999999999 16.124760000000002 0.22524 14.016167999999999 0.05736C13.581624 0.022751999999999998 11.132064 -0.009168 10.716000000000001 0.014352M10.512 1.034688C8.042159999999999 1.164816 5.595744 1.6864560000000002 3.2640000000000002 2.580168C2.4960240000000002 2.874504 2.337624 2.9685840000000003 2.169936 3.229968C2.126904 3.297048 2.071968 3.415848 2.047848 3.4939679999999997C2.006112 3.62916 2.004 3.8331600000000003 2.004 7.728C2.004 11.942112000000002 2.006088 12.051120000000001 2.1011040000000003 12.789888000000001C2.157528 13.228584000000001 2.250312 13.702272 2.376528 14.196C3.0294719999999997 16.75008 4.485936 18.967512 6.588 20.607768C7.3878960000000005 21.231912 8.332320000000001 21.778176 9.314447999999999 22.184736C9.695400000000001 22.342416 11.097719999999999 22.85172 11.327184 22.915728C11.537088 22.974263999999998 11.592696 22.97952 12 22.97952C12.408192000000001 22.97952 12.462624 22.974336 12.674760000000001 22.9152C12.902688 22.851648 14.294160000000002 22.345944 14.686368 22.184112C16.873104 21.281832 18.759624 19.726128000000003 20.051232 17.76C20.969808 16.361736 21.583752 14.779776 21.849888 13.125216C21.999503999999998 12.195192 22.012104 11.720976 22.003296 7.356C21.996096 3.7925039999999997 21.9936 3.605688 21.951504 3.481128C21.927167999999998 3.409152 21.87228 3.2957520000000002 21.829536 3.2291279999999998C21.662424 2.968656 21.503400000000003 2.874288 20.736 2.580168C18.359664 1.6693680000000002 15.982560000000001 1.1668560000000001 13.416 1.032768C12.876743999999999 1.004592 11.060448 1.005792 10.512 1.034688M11.616 5.00832C10.746192 5.07216 9.816912 5.37276 9.108 5.819616C7.931472 6.561191999999999 7.089912 7.67244 6.708768 8.987664C6.40632 10.031352 6.43764 11.234856 6.794568000000001 12.284352C6.915792000000001 12.640824 7.198344 13.215144 7.404432 13.524000000000001C8.307744 14.877839999999999 9.712056 15.75108 11.328 15.96384C11.62152 16.00248 12.37848 16.00248 12.672 15.96384C13.421688 15.865128 14.172287999999998 15.609264 14.78784 15.242616000000002C16.293312 14.345832000000001 17.283 12.811344000000002 17.47068 11.082936C17.52744 10.560431999999999 17.498231999999998 10.294704000000001 17.368848 10.155984C17.236392 10.014 16.962936 9.962592 16.7862 10.046472C16.577016 10.145712 16.488 10.33968 16.488 10.696104C16.488 10.90956 16.432199999999998 11.312424 16.366848 11.570784C16.030296 12.901416 15.099 14.025216 13.872 14.581439999999999C12.781848 15.0756 11.586 15.12888 10.492152 14.732016C8.911032 14.158344000000001 7.79292 12.790824 7.5494639999999995 11.132928C7.501080000000001 10.803431999999999 7.5009120000000005 10.198296 7.5491280000000005 9.867072C7.741776000000001 8.543448 8.508216000000001 7.378343999999999 9.65472 6.666216C9.889272 6.520536000000001 10.319664 6.322463999999999 10.620696 6.221688C10.986792000000001 6.099144 11.589024 6 11.967312 6C12.444287999999998 6 12.679584 5.478312 12.350856 5.149584C12.204264 5.002992 12.061752 4.9755840000000005 11.616 5.00832M16.844160000000002 5.02548C16.795824 5.0427360000000006 16.729128 5.077368 16.695936 5.102424C16.66272 5.127504 15.576312000000001 6.419688000000001 14.281680000000001 7.974C12.987048 9.528312 11.922288 10.8 11.915544 10.8C11.9088 10.8 11.537952 10.525751999999999 11.091432 10.190592C10.644936 9.855408 10.246032 9.563808 10.204992 9.542592C10.093392 9.484872 9.892848 9.492744 9.765768 9.559848C9.607872 9.6432 9.520224 9.782352000000001 9.509568000000002 9.966504C9.493536 10.243704000000001 9.490608 10.240656000000001 10.512 11.009256C11.007 11.381736 11.466000000000001 11.710368 11.532 11.739528C11.617128000000001 11.777136 11.714784 11.795520000000002 11.868 11.802719999999999C12.119712 11.814576 12.307416 11.76408 12.495263999999999 11.633976C12.624047999999998 11.544744 17.408112 5.825592 17.463383999999998 5.694768000000001C17.510808 5.582472 17.504304 5.390352 17.449416 5.282760000000001C17.330736 5.050152 17.077032 4.942296 16.844160000000002 5.02548" stroke="none" fill="currentColor" fill-rule="evenodd" stroke-width="0.024"></path>
</svg>