<svg xmlns="http://www.w3.org/2000/svg" viewBox="0 0 24 24" version="1.1">
  <path d="M7.758024 5.522616C7.263408 5.6050320000000005 6.787344 6.02136 6.625536 6.513C6.59892 6.593856000000001 6.104592 8.9226 5.527032 11.688L4.4769120000000004 16.716 4.477128 17.016000000000002C4.477296 17.278464 4.48512 17.337552000000002 4.539648 17.488224000000002C4.673688 17.858688 4.947 18.167376 5.292 18.337944C5.65368 18.516744 5.004552 18.503111999999998 13.183008000000001 18.503591999999998C21.141096 18.504024 20.716824000000003 18.510528 21.012696000000002 18.383712000000003C21.383832 18.224616 21.713904 17.866128 21.83832 17.487000000000002C21.873816 17.378832000000003 23.579976000000002 9.230903999999999 23.977296 7.272C24.036288 6.981216000000001 24.035784 6.9580079999999995 23.964984 6.685416000000001C23.832816 6.176784 23.566536 5.843568 23.128368000000002 5.6385119999999995C22.804224 5.486832 23.355408 5.4966 15.264000000000001 5.499216C11.173224 5.500536 7.827840000000001 5.510976 7.758024 5.522616M0.3 6.539424C0.207552 6.582504 0.14076 6.640968 0.075864 6.735696C0.033408 6.797664 0.024 6.846024 0.024 7.002096000000001C0.024 7.175712 0.030432 7.201656000000001 0.09568800000000001 7.291752C0.135096 7.346159999999999 0.213408 7.415280000000001 0.269688 7.445352000000001L0.372 7.5 2.423064 7.506648C3.866328 7.511328 4.512432 7.505352 4.603416 7.486464C4.749936 7.456032 4.890552 7.346544 4.9535279999999995 7.2138C5.037408 7.037064000000001 4.986 6.7636080000000005 4.844016 6.631152C4.702920000000001 6.499536000000001 4.784688 6.503928 2.490768 6.504936C0.72816 6.505728 0.359904 6.511512 0.3 6.539424M8.452008 6.57C10.592640000000001 8.886864000000001 12.922272 11.392056 13.015824 11.477808000000001C13.44336 11.869632 14.1222 11.96676 14.646503999999998 11.711112C14.766143999999999 11.652768 22.004952000000003 6.6113040000000005 22.0908 6.526511999999999C22.105008 6.512496 19.525056 6.5040000000000004 15.252312000000002 6.5040000000000004L8.391024 6.5040000000000004 8.452008 6.57M6.494808000000001 11.999184C5.663568 15.990672 5.4678960000000005 16.96488 5.477448 17.064287999999998C5.49216 17.21736 5.589864 17.363808 5.724 17.433864L5.82 17.484 13.203936 17.484L20.587872 17.484 20.691936000000002 17.411376C20.752368 17.369184 20.818944000000002 17.293704 20.850696 17.231376C20.890128 17.153928 21.19332 15.736368 21.938064 12.147359999999999C22.506024 9.410207999999999 22.9674 7.1674560000000005 22.963368 7.163495999999999C22.959312 7.159511999999999 21.336000000000002 8.290128000000001 19.356 9.676008C15.287832000000002 12.523464 15.21924 12.570456 14.986368 12.66936C14.641584000000002 12.815784 14.45268 12.850871999999999 14.016 12.849576C13.664688 12.848544 13.592927999999999 12.841152000000001 13.38 12.784176C13.018968000000001 12.687576 12.700776 12.525096000000001 12.411 12.289392C12.353256000000002 12.242424 11.258280000000001 11.0754 9.977736 9.696C8.697168 8.3166 7.621224 7.158576 7.586712 7.122599999999999L7.524 7.057175999999999 6.494808000000001 11.999184M0.3 9.539424C0.20568 9.583368 0.140784 9.641064 0.069864 9.744C0.021912 9.8136 0.012 9.857448 0.012 9.99984C0.012 10.152528 0.020136 10.183296 0.085056 10.27584C0.125256 10.333128 0.206256 10.407 0.265056 10.44L0.372 10.5 1.872 10.507512C2.697 10.51164 3.4385039999999996 10.508184 3.5197680000000005 10.499832C3.9458159999999998 10.45608 4.152 9.988344 3.881184 9.67992C3.720576 9.496992 3.8073599999999996 9.505008 1.992 9.505464C0.6557040000000001 9.5058 0.3594 9.511752 0.3 9.539424M0.3 12.539064C0.205416 12.583608 0.140616 12.641304 0.069864 12.744C0.021912 12.8136 0.012 12.857448 0.012 12.999839999999999C0.012 13.152528000000002 0.020136 13.183296 0.085056 13.275839999999999C0.125256 13.333128 0.206256 13.407 0.265056 13.44L0.372 13.5 1.5 13.5L2.628 13.5 2.734944 13.44C2.7937440000000002 13.407 2.874744 13.333128 2.914944 13.275839999999999C2.980056 13.183008000000001 2.9879520000000004 13.152984000000002 2.987472 12.999839999999999C2.986992 12.853032 2.97744 12.814032000000001 2.921784 12.732000000000001C2.885952 12.6792 2.816808 12.609 2.768112 12.576L2.679576 12.516 1.525776 12.510576C0.5735760000000001 12.506112 0.359424 12.511104000000001 0.3 12.539064" stroke="none" fill="currentColor" fill-rule="evenodd" stroke-width="0.024"></path>
</svg>