<?xml version="1.0" encoding="UTF-8"?><svg id="Layer_2" xmlns="http://www.w3.org/2000/svg" viewBox="0 0 567.59 213.89"><g id="Layer_1-2"><path d="M180.73,169.69v-72.29h15.97v72.29h-15.97ZM193.12,169.69v-12.59h17c3.07,0,5.49-.9,7.27-2.71,1.77-1.81,2.66-4.08,2.66-6.81,0-1.77-.41-3.38-1.23-4.81s-1.96-2.56-3.43-3.38c-1.47-.82-3.23-1.23-5.27-1.23h-17v-12.29h15.67c2.59,0,4.71-.65,6.35-1.95,1.64-1.3,2.46-3.31,2.46-6.04s-.82-4.56-2.46-5.89-3.75-2-6.35-2h-15.67v-12.6h18.74c4.64,0,8.6.85,11.88,2.56,3.28,1.71,5.75,3.99,7.42,6.86,1.67,2.87,2.51,6.01,2.51,9.42,0,4.57-1.43,8.38-4.3,11.42-2.87,3.04-7.1,5.14-12.7,6.3l.41-5.43c6.14,1.16,10.85,3.52,14.13,7.07,3.28,3.55,4.92,7.92,4.92,13.11,0,3.96-.97,7.51-2.92,10.65-1.95,3.14-4.75,5.65-8.4,7.53-3.65,1.88-8.04,2.82-13.16,2.82h-18.53Z"/><path d="M237.66,169.69l28.57-72.29h14.64l28.36,72.29h-17.1l-21.61-59.9h5.94l-22.12,59.9h-16.69ZM254.04,156.69v-13.11h39.32v13.11h-39.32Z"/><path d="M343.85,170.82c-5.39,0-10.39-.94-15-2.82-4.61-1.88-8.64-4.52-12.08-7.94-3.45-3.41-6.13-7.39-8.04-11.93-1.91-4.54-2.87-9.44-2.87-14.69s.96-10.15,2.87-14.69c1.91-4.54,4.59-8.48,8.04-11.83,3.45-3.34,7.46-5.96,12.03-7.83,4.57-1.88,9.59-2.82,15.05-2.82,5.73,0,10.84.92,15.31,2.76,4.47,1.84,8.38,4.37,11.72,7.58l-10.85,10.96c-1.84-2.05-4.11-3.65-6.81-4.81-2.7-1.16-5.82-1.74-9.37-1.74-3.14,0-6.01.53-8.6,1.59-2.59,1.06-4.85,2.58-6.76,4.56-1.91,1.98-3.38,4.37-4.4,7.17-1.02,2.8-1.54,5.84-1.54,9.11s.51,6.5,1.54,9.27,2.49,5.15,4.4,7.17c1.91,2.01,4.16,3.55,6.76,4.61,2.59,1.06,5.46,1.59,8.6,1.59,3.69,0,6.89-.56,9.63-1.69,2.73-1.13,5.05-2.75,6.96-4.86l10.96,10.96c-3.42,3.28-7.37,5.82-11.88,7.63-4.5,1.81-9.73,2.71-15.67,2.71Z"/><path d="M376.72,169.69v-72.29h16.18v72.29h-16.18ZM386.45,139.59v-14.03h40.34v14.03h-40.34ZM421.47,169.69v-72.29h16.28v72.29h-16.28Z"/><path d="M448.09,169.69v-72.29h16.18v72.29h-16.18ZM460.48,111.32v-13.93h39.12v13.93h-39.12ZM460.48,139.59v-13.62h36.04v13.62h-36.04ZM460.48,169.69v-13.93h39.73v13.93h-39.73Z"/><path d="M507.68,169.69v-72.29h16.18v72.29h-16.18ZM520.07,140v-12.08h15.26c3.14,0,5.6-.8,7.37-2.41,1.77-1.6,2.66-3.77,2.66-6.5s-.87-4.74-2.61-6.45c-1.74-1.71-4.18-2.56-7.32-2.56h-15.36v-12.6h17.2c4.85,0,9.08.91,12.7,2.71,3.62,1.81,6.43,4.32,8.45,7.53,2.01,3.21,3.02,6.86,3.02,10.96,0,4.37-1.02,8.14-3.07,11.32s-4.92,5.65-8.6,7.42c-3.69,1.78-8.02,2.66-13,2.66h-16.69ZM547,169.69l-22.53-31.13,14.85-4.1,26.83,35.23h-19.15Z"/><path d="M184,206.97v-18.58h1.43l8.02,13.15h-1.03l8.02-13.15h1.43v18.58h-2v-15.12l.46.13-6.7,10.99h-1.4l-6.7-10.99.46-.13v15.12h-2Z"/><path d="M205.22,206.97l7.59-18.58h1.51l7.53,18.58h-2.16l-6.53-16.39h.78l-6.61,16.39h-2.11ZM208.7,202.14v-1.73h9.72v1.73h-9.72Z"/><path d="M224.98,206.97v-18.58h2v18.58h-2ZM226.28,198.68v-1.7h5.37c1.22,0,2.17-.31,2.82-.93.66-.62.99-1.44.99-2.47s-.32-1.83-.97-2.47c-.65-.64-1.58-.96-2.81-.96h-5.4v-1.75h5.4c1.21,0,2.24.22,3.11.66.86.44,1.53,1.05,1.98,1.82.46.77.69,1.66.69,2.65,0,1.04-.23,1.95-.69,2.71-.46.77-1.12,1.36-1.98,1.8-.86.43-1.9.65-3.11.65h-5.4ZM236.22,206.97l-6.97-8.59,1.94-.62,7.59,9.21h-2.57Z"/><path d="M241.67,206.97v-18.58h2v18.58h-2ZM253.44,206.97l-10.12-9.69,9.91-8.88h2.67l-10.58,9.42v-1.13l10.85,10.29h-2.73Z"/><path d="M258.98,206.97v-18.58h2v18.58h-2ZM260.3,190.21v-1.81h10.77v1.81h-10.77ZM260.3,198.33v-1.75h10.07v1.75h-10.07ZM260.3,206.97v-1.81h10.94v1.81h-10.94Z"/><path d="M272.75,190.21v-1.81h15.09v1.81h-15.09ZM279.31,206.97v-18.06h2v18.06h-2Z"/><path d="M291.16,206.97v-18.58h2v18.58h-2Z"/><path d="M297.88,206.97v-18.58h1.43l.57,2.35v16.23h-2ZM310.74,206.97l-11.72-15.93.3-2.65,11.72,15.93-.3,2.65ZM310.74,206.97l-.57-2.24v-16.33h2v18.58h-1.43Z"/><path d="M325.29,207.24c-1.31,0-2.54-.25-3.69-.74-1.14-.5-2.13-1.17-2.97-2.04-.84-.86-1.49-1.88-1.97-3.04-.48-1.16-.72-2.42-.72-3.77s.24-2.6.72-3.75c.48-1.15,1.14-2.16,2-3.04.85-.87,1.85-1.55,3-2.04,1.14-.49,2.39-.73,3.74-.73,1.49,0,2.87.3,4.12.89,1.25.59,2.29,1.43,3.12,2.51l-1.4,1.4c-.63-.94-1.45-1.65-2.47-2.15-1.02-.49-2.14-.74-3.36-.74-1.44,0-2.72.33-3.83.99-1.12.66-1.98,1.56-2.61,2.71s-.93,2.47-.93,3.97.31,2.79.93,3.94c.62,1.15,1.48,2.06,2.57,2.71,1.09.66,2.33.99,3.71.99s2.58-.28,3.59-.84c1.01-.56,1.79-1.37,2.35-2.43.56-1.06.84-2.34.84-3.83l1.13.84h-8.1v-1.81h9.04v.3c0,2.09-.37,3.86-1.12,5.31s-1.78,2.54-3.1,3.28-2.85,1.11-4.58,1.11Z"/><path d="M348.97,207.24c-1.19,0-2.24-.24-3.15-.71-.91-.48-1.62-1.13-2.12-1.97-.5-.84-.76-1.79-.76-2.85,0-1.15.31-2.2.92-3.13.61-.94,1.48-1.66,2.59-2.19l.95,1.21c-.77.38-1.39.92-1.85,1.62s-.69,1.51-.69,2.43c0,.76.18,1.42.54,1.98.36.57.85,1.01,1.49,1.32.63.32,1.35.47,2.16.47.95,0,1.79-.22,2.52-.65.73-.43,1.28-.98,1.66-1.65l1.27,1.43c-.36.52-.82.99-1.39,1.39-.57.41-1.2.72-1.9.95-.7.22-1.45.34-2.24.34ZM355.93,206.97l-8.96-9.42c-.74-.77-1.28-1.52-1.63-2.23s-.53-1.47-.53-2.28c0-.95.22-1.8.66-2.54s1.05-1.32,1.82-1.75c.77-.43,1.66-.65,2.65-.65.72,0,1.38.11,1.97.34.59.22,1.12.53,1.59.9.47.38.86.82,1.19,1.32l-1.4,1.27c-.41-.61-.89-1.09-1.43-1.44-.54-.35-1.17-.53-1.89-.53-.94,0-1.71.28-2.31.85-.6.57-.91,1.31-.91,2.23,0,.67.14,1.25.43,1.77.29.51.75,1.1,1.38,1.77l9.77,10.39h-2.4Z"/><path d="M365.81,206.97v-18.58h2v18.58h-2ZM367.06,206.97v-1.84h5.45c1.46,0,2.75-.32,3.86-.96,1.12-.64,1.98-1.52,2.61-2.65s.93-2.42.93-3.88-.32-2.72-.95-3.85-1.5-2-2.62-2.63-2.39-.95-3.83-.95h-5.4v-1.84h5.45c1.35,0,2.6.23,3.74.69,1.14.46,2.14,1.11,3,1.94.85.84,1.52,1.82,1.98,2.94.47,1.13.7,2.36.7,3.71s-.23,2.54-.7,3.67c-.47,1.13-1.12,2.12-1.97,2.96-.85.84-1.84,1.49-2.98,1.96-1.14.47-2.38.7-3.71.7h-5.56Z"/><path d="M385.77,206.97v-18.58h2v18.58h-2ZM387.09,190.21v-1.81h10.77v1.81h-10.77ZM387.09,198.33v-1.75h10.07v1.75h-10.07ZM387.09,206.97v-1.81h10.94v1.81h-10.94Z"/><path d="M406.34,207.24c-1.46,0-2.71-.27-3.75-.81s-1.95-1.31-2.73-2.32l1.38-1.35c.63.88,1.36,1.54,2.2,1.97.84.43,1.83.65,2.98.65s2.15-.27,2.88-.81c.73-.54,1.09-1.29,1.09-2.24,0-.74-.17-1.35-.5-1.82-.33-.48-.78-.86-1.34-1.16-.56-.3-1.17-.56-1.82-.8s-1.32-.48-1.98-.74-1.27-.58-1.82-.97c-.55-.39-1-.89-1.34-1.51s-.51-1.41-.51-2.36c0-1.01.24-1.87.73-2.59.49-.72,1.16-1.27,2.01-1.66.85-.39,1.82-.58,2.9-.58,1.21,0,2.28.23,3.23.7.95.47,1.73,1.1,2.36,1.89l-1.38,1.38c-.58-.7-1.21-1.23-1.89-1.58-.68-.35-1.48-.53-2.38-.53-1.08,0-1.94.25-2.59.76-.65.5-.97,1.21-.97,2.11,0,.68.17,1.24.5,1.67.33.43.78.79,1.34,1.08.56.29,1.17.54,1.82.77.66.23,1.32.47,1.98.74.67.27,1.27.61,1.82,1.03s.99.94,1.34,1.58c.34.64.51,1.45.51,2.44,0,1.6-.54,2.85-1.63,3.74s-2.57,1.34-4.44,1.34Z"/><path d="M416.14,206.97v-18.58h2v18.58h-2Z"/><path d="M431.29,207.24c-1.31,0-2.54-.25-3.69-.74-1.14-.5-2.13-1.17-2.97-2.04-.84-.86-1.49-1.88-1.97-3.04-.48-1.16-.72-2.42-.72-3.77s.24-2.6.72-3.75c.48-1.15,1.14-2.16,2-3.04.85-.87,1.85-1.55,3-2.04,1.14-.49,2.39-.73,3.74-.73,1.49,0,2.87.3,4.12.89,1.25.59,2.29,1.43,3.12,2.51l-1.4,1.4c-.63-.94-1.45-1.65-2.47-2.15-1.02-.49-2.14-.74-3.36-.74-1.44,0-2.72.33-3.83.99-1.12.66-1.98,1.56-2.61,2.71s-.93,2.47-.93,3.97.31,2.79.93,3.94c.62,1.15,1.48,2.06,2.57,2.71,1.09.66,2.33.99,3.71.99s2.58-.28,3.59-.84c1.01-.56,1.79-1.37,2.35-2.43.56-1.06.84-2.34.84-3.83l1.13.84h-8.1v-1.81h9.04v.3c0,2.09-.37,3.86-1.12,5.31s-1.78,2.54-3.1,3.28-2.85,1.11-4.58,1.11Z"/><path d="M443.74,206.97v-18.58h1.43l.57,2.35v16.23h-2ZM456.59,206.97l-11.72-15.93.3-2.65,11.72,15.93-.3,2.65ZM456.59,206.97l-.57-2.24v-16.33h2v18.58h-1.43Z"/><path d="M181.73,85.81V13.52h16.18v72.29h-16.18ZM194.12,59.49v-12.6h15.56c1.98,0,3.77-.39,5.38-1.18,1.6-.78,2.88-1.96,3.84-3.53.96-1.57,1.43-3.45,1.43-5.63s-.48-4.16-1.43-5.73c-.96-1.57-2.24-2.75-3.84-3.53-1.6-.78-3.4-1.18-5.38-1.18h-15.56v-12.6h17.92c4.57,0,8.72.92,12.44,2.76,3.72,1.84,6.66,4.49,8.81,7.94,2.15,3.45,3.22,7.56,3.22,12.34s-1.08,8.79-3.22,12.24c-2.15,3.45-5.09,6.09-8.81,7.94-3.72,1.84-7.87,2.76-12.44,2.76h-17.92Z"/><path d="M241.94,85.81V13.52h16.18v72.29h-16.18ZM251.67,55.71v-14.03h40.34v14.03h-40.34ZM286.69,85.81V13.52h16.28v72.29h-16.28Z"/><path d="M313.31,85.81V13.52h16.18v72.29h-16.18Z"/><path d="M339.93,85.81V13.52h16.18v72.29h-16.18ZM352.43,85.81v-14.13h35.74v14.13h-35.74Z"/><path d="M394,85.81V13.52h16.18v72.29h-16.18Z"/><path d="M420.62,85.81V13.52h16.18v72.29h-16.18ZM433.01,59.49v-12.6h15.56c1.98,0,3.77-.39,5.38-1.18,1.6-.78,2.88-1.96,3.84-3.53.96-1.57,1.43-3.45,1.43-5.63s-.48-4.16-1.43-5.73c-.96-1.57-2.24-2.75-3.84-3.53-1.6-.78-3.4-1.18-5.38-1.18h-15.56v-12.6h17.92c4.57,0,8.72.92,12.44,2.76,3.72,1.84,6.66,4.49,8.81,7.94,2.15,3.45,3.22,7.56,3.22,12.34s-1.08,8.79-3.22,12.24c-2.15,3.45-5.09,6.09-8.81,7.94-3.72,1.84-7.87,2.76-12.44,2.76h-17.92Z"/><path d="M480.83,85.81V13.52h16.18v72.29h-16.18ZM493.22,59.49v-12.6h15.56c1.98,0,3.77-.39,5.38-1.18,1.6-.78,2.88-1.96,3.84-3.53.96-1.57,1.43-3.45,1.43-5.63s-.48-4.16-1.43-5.73c-.96-1.57-2.24-2.75-3.84-3.53-1.6-.78-3.4-1.18-5.38-1.18h-15.56v-12.6h17.92c4.57,0,8.72.92,12.44,2.76,3.72,1.84,6.66,4.49,8.81,7.94,2.15,3.45,3.22,7.56,3.22,12.34s-1.08,8.79-3.22,12.24c-2.15,3.45-5.09,6.09-8.81,7.94-3.72,1.84-7.87,2.76-12.44,2.76h-17.92Z"/><g id="hSBdJ2"><path d="M0,60.35h81.16c1.95,0,4.74,2.88,4.96,4.93.74,6.97-5.75,12.87-12.47,12.96l-57.68.19L0,150.9h27.29l11.73-45.65,49.66-.21c9.97,1.95,4.44,14.46-2.48,16.81-4.25,1.34-21.45,1.38-28.04,1.74l-8.16,27.3h31.84s12.27.72,26.36-11.27c14.11-12,22.85-39.55,8.24-54.36-.74-.75-3.99-2.88-4.05-3.13-.2-.92,3.08-8.1,3.56-10.02,4.98-19.63-7.53-37.56-27.3-40.46l-82.29-.03L0,60.35Z"/></g><rect x="151.86" y="11.71" width="2.3" height="159.11" transform="translate(306.02 182.52) rotate(180)"/></g></svg>