<?xml version="1.0" encoding="UTF-8"?><svg id="Layer_2" xmlns="http://www.w3.org/2000/svg" viewBox="0 0 451.23 72.1"><g id="Layer_1-2"><path d="M272.42,40.63V6.4h7.56v34.23h-7.56ZM278.29,40.63v-5.96h8.05c1.45,0,2.6-.43,3.44-1.28.84-.86,1.26-1.93,1.26-3.22,0-.84-.19-1.6-.58-2.28-.39-.68-.93-1.21-1.62-1.6-.7-.39-1.53-.58-2.5-.58h-8.05v-5.82h7.42c1.23,0,2.23-.31,3.01-.92.78-.61,1.16-1.57,1.16-2.86s-.39-2.16-1.16-2.79c-.78-.63-1.78-.95-3.01-.95h-7.42v-5.96h8.87c2.2,0,4.07.4,5.62,1.21,1.55.81,2.72,1.89,3.52,3.25.79,1.36,1.19,2.84,1.19,4.46,0,2.17-.68,3.97-2.04,5.41-1.36,1.44-3.36,2.43-6.01,2.98l.19-2.57c2.91.55,5.14,1.67,6.69,3.35,1.55,1.68,2.33,3.75,2.33,6.21,0,1.88-.46,3.56-1.38,5.04s-2.25,2.67-3.98,3.56c-1.73.89-3.81,1.33-6.23,1.33h-8.78Z"/><path d="M298.5,40.63l13.53-34.23h6.93l13.43,34.23h-8.1l-10.23-28.36h2.81l-10.47,28.36h-7.9ZM306.26,34.47v-6.21h18.62v6.21h-18.62Z"/><path d="M347.91,41.16c-2.55,0-4.92-.44-7.1-1.33-2.18-.89-4.09-2.14-5.72-3.76-1.63-1.62-2.9-3.5-3.81-5.65-.91-2.15-1.36-4.47-1.36-6.96s.45-4.81,1.36-6.96,2.17-4.02,3.81-5.6c1.63-1.58,3.53-2.82,5.7-3.71,2.17-.89,4.54-1.33,7.13-1.33,2.71,0,5.13.44,7.25,1.31,2.12.87,3.97,2.07,5.55,3.59l-5.14,5.19c-.87-.97-1.95-1.73-3.22-2.28-1.28-.55-2.76-.82-4.44-.82-1.49,0-2.84.25-4.07.75-1.23.5-2.3,1.22-3.2,2.16-.91.94-1.6,2.07-2.08,3.39-.49,1.33-.73,2.76-.73,4.31s.24,3.08.73,4.39c.48,1.31,1.18,2.44,2.08,3.39.9.95,1.97,1.68,3.2,2.18,1.23.5,2.58.75,4.07.75,1.75,0,3.26-.27,4.56-.8s2.39-1.3,3.3-2.3l5.19,5.19c-1.62,1.55-3.49,2.76-5.62,3.61-2.13.86-4.61,1.28-7.42,1.28Z"/><path d="M362.6,40.63V6.4h7.66v34.23h-7.66ZM367.21,26.38v-6.64h19.1v6.64h-19.1ZM383.79,40.63V6.4h7.71v34.23h-7.71Z"/><path d="M395.52,40.63V6.4h7.66v34.23h-7.66ZM401.39,12.99v-6.59h18.52v6.59h-18.52ZM401.39,26.38v-6.45h17.07v6.45h-17.07ZM401.39,40.63v-6.59h18.81v6.59h-18.81Z"/><path d="M422.87,40.63V6.4h7.66v34.23h-7.66ZM428.74,26.57v-5.72h7.22c1.49,0,2.65-.38,3.49-1.14.84-.76,1.26-1.79,1.26-3.08s-.41-2.25-1.24-3.05c-.82-.81-1.98-1.21-3.47-1.21h-7.27v-5.96h8.15c2.29,0,4.3.43,6.01,1.28,1.71.86,3.05,2.04,4,3.56.95,1.52,1.43,3.25,1.43,5.19,0,2.07-.48,3.85-1.45,5.36-.97,1.5-2.33,2.68-4.07,3.52-1.75.84-3.8,1.26-6.16,1.26h-7.9ZM441.49,40.63l-10.67-14.74,7.03-1.94,12.7,16.68h-9.07Z"/><path d="M99.98,65.96v-16.51h1.27l7.13,11.69h-.91l7.13-11.69h1.27v16.51h-1.78v-13.44l.41.12-5.95,9.77h-1.25l-5.95-9.77.41-.12v13.44h-1.78Z"/><path d="M118.85,65.96l6.74-16.51h1.34l6.7,16.51h-1.92l-5.81-14.57h.7l-5.88,14.57h-1.87ZM121.94,61.66v-1.54h8.64v1.54h-8.64Z"/><path d="M136.42,65.96v-16.51h1.78v16.51h-1.78ZM137.57,58.59v-1.51h4.78c1.09,0,1.92-.28,2.51-.83.58-.55.88-1.28.88-2.2s-.29-1.63-.86-2.2-1.41-.85-2.5-.85h-4.8v-1.56h4.8c1.07,0,1.99.2,2.76.59.77.39,1.36.93,1.76,1.62.41.69.61,1.47.61,2.35,0,.93-.2,1.73-.61,2.41-.41.68-1,1.21-1.76,1.6-.77.38-1.69.58-2.76.58h-4.8ZM146.4,65.96l-6.19-7.63,1.73-.55,6.74,8.18h-2.28Z"/><path d="M151.25,65.96v-16.51h1.78v16.51h-1.78ZM161.71,65.96l-9-8.62,8.81-7.9h2.38l-9.41,8.38v-1.01l9.65,9.14h-2.42Z"/><path d="M166.63,65.96v-16.51h1.78v16.51h-1.78ZM167.81,51.05v-1.61h9.58v1.61h-9.58ZM167.81,58.28v-1.56h8.95v1.56h-8.95ZM167.81,65.96v-1.61h9.72v1.61h-9.72Z"/><path d="M178.87,51.05v-1.61h13.42v1.61h-13.42ZM184.7,65.96v-16.06h1.78v16.06h-1.78Z"/><path d="M195.24,65.96v-16.51h1.78v16.51h-1.78Z"/><path d="M201.21,65.96v-16.51h1.27l.5,2.09v14.42h-1.78ZM212.64,65.96l-10.42-14.16.26-2.35,10.42,14.16-.26,2.35ZM212.64,65.96l-.5-1.99v-14.52h1.78v16.51h-1.27Z"/><path d="M225.58,66.2c-1.17,0-2.26-.22-3.28-.66-1.02-.44-1.9-1.04-2.64-1.81-.74-.77-1.33-1.67-1.75-2.7-.42-1.03-.64-2.15-.64-3.35s.21-2.31.64-3.34c.42-1.02,1.02-1.92,1.78-2.7s1.65-1.38,2.66-1.81c1.02-.43,2.12-.65,3.32-.65,1.33,0,2.55.26,3.66.79,1.11.53,2.04,1.27,2.77,2.23l-1.25,1.25c-.56-.83-1.29-1.47-2.2-1.91-.9-.44-1.9-.66-2.99-.66-1.28,0-2.42.29-3.41.88s-1.76,1.39-2.32,2.41c-.55,1.02-.83,2.2-.83,3.53s.28,2.48.83,3.5c.55,1.02,1.31,1.83,2.28,2.41.97.58,2.07.88,3.3.88s2.3-.25,3.19-.74c.9-.5,1.59-1.22,2.09-2.16.5-.94.74-2.08.74-3.41l1.01.74h-7.2v-1.61h8.04v.26c0,1.86-.33,3.43-1,4.72-.66,1.29-1.58,2.26-2.76,2.92-1.18.66-2.53.98-4.07.98Z"/><path d="M246.62,66.2c-1.06,0-1.99-.21-2.8-.64-.81-.42-1.44-1.01-1.88-1.75-.45-.74-.67-1.59-.67-2.53,0-1.02.27-1.95.82-2.78s1.31-1.48,2.3-1.94l.84,1.08c-.69.34-1.24.82-1.64,1.44s-.61,1.34-.61,2.16c0,.67.16,1.26.48,1.76.32.5.76.9,1.32,1.18.56.28,1.2.42,1.92.42.85,0,1.6-.19,2.24-.58.65-.38,1.14-.87,1.48-1.46l1.13,1.27c-.32.46-.73.88-1.24,1.24-.5.36-1.07.64-1.69.84-.62.2-1.29.3-1.99.3ZM252.81,65.96l-7.97-8.38c-.66-.69-1.14-1.35-1.45-1.98-.31-.63-.47-1.31-.47-2.03,0-.85.2-1.6.59-2.26.39-.66.93-1.18,1.62-1.56.69-.38,1.47-.58,2.35-.58.64,0,1.22.1,1.75.3.53.2,1,.47,1.42.8.42.34.77.73,1.06,1.18l-1.25,1.13c-.37-.54-.79-.97-1.27-1.28-.48-.31-1.04-.47-1.68-.47-.83,0-1.52.25-2.05.76-.54.5-.8,1.16-.8,1.98,0,.59.13,1.12.38,1.57s.66.98,1.22,1.57l8.69,9.24h-2.14Z"/><path d="M261.6,65.96v-16.51h1.78v16.51h-1.78ZM262.7,65.96v-1.63h4.85c1.3,0,2.44-.28,3.43-.85.99-.57,1.76-1.35,2.32-2.35s.83-2.15.83-3.44-.28-2.42-.84-3.42c-.56-1-1.34-1.78-2.33-2.34-.99-.56-2.13-.84-3.41-.84h-4.8v-1.63h4.85c1.2,0,2.31.2,3.32.61,1.02.41,1.9.98,2.66,1.73.76.74,1.35,1.62,1.76,2.62s.62,2.1.62,3.3-.21,2.26-.62,3.26c-.42,1.01-1,1.88-1.75,2.63-.75.74-1.64,1.32-2.65,1.74-1.02.42-2.12.62-3.3.62h-4.94Z"/><path d="M279.33,65.96v-16.51h1.78v16.51h-1.78ZM280.51,51.05v-1.61h9.58v1.61h-9.58ZM280.51,58.28v-1.56h8.95v1.56h-8.95ZM280.51,65.96v-1.61h9.72v1.61h-9.72Z"/><path d="M297.62,66.2c-1.3,0-2.41-.24-3.34-.72-.93-.48-1.74-1.17-2.42-2.06l1.22-1.2c.56.78,1.21,1.37,1.96,1.75.74.38,1.63.58,2.65.58s1.91-.24,2.56-.72c.65-.48.97-1.14.97-1.99,0-.66-.15-1.2-.44-1.62-.3-.42-.69-.77-1.19-1.03-.5-.26-1.04-.5-1.62-.71s-1.17-.43-1.76-.66c-.59-.23-1.13-.52-1.62-.86s-.88-.79-1.19-1.34c-.3-.55-.46-1.25-.46-2.1,0-.9.22-1.66.65-2.3.43-.64,1.03-1.13,1.79-1.48.76-.34,1.62-.52,2.58-.52,1.07,0,2.03.21,2.87.62s1.54.98,2.1,1.68l-1.22,1.22c-.51-.62-1.07-1.09-1.68-1.4-.61-.31-1.31-.47-2.11-.47-.96,0-1.73.22-2.3.67-.58.45-.86,1.07-.86,1.87,0,.61.15,1.1.44,1.49.3.38.69.7,1.19.96s1.04.48,1.62.68,1.17.42,1.76.66,1.13.54,1.62.91.88.84,1.19,1.4c.3.57.46,1.29.46,2.17,0,1.42-.48,2.53-1.45,3.32-.97.79-2.28,1.19-3.95,1.19Z"/><path d="M306.33,65.96v-16.51h1.78v16.51h-1.78Z"/><path d="M319.8,66.2c-1.17,0-2.26-.22-3.28-.66-1.02-.44-1.9-1.04-2.64-1.81-.74-.77-1.33-1.67-1.75-2.7-.42-1.03-.64-2.15-.64-3.35s.21-2.31.64-3.34c.42-1.02,1.02-1.92,1.78-2.7s1.65-1.38,2.66-1.81c1.02-.43,2.12-.65,3.32-.65,1.33,0,2.55.26,3.66.79,1.11.53,2.04,1.27,2.77,2.23l-1.25,1.25c-.56-.83-1.29-1.47-2.2-1.91-.9-.44-1.9-.66-2.99-.66-1.28,0-2.42.29-3.41.88s-1.76,1.39-2.32,2.41c-.55,1.02-.83,2.2-.83,3.53s.28,2.48.83,3.5c.55,1.02,1.31,1.83,2.28,2.41.97.58,2.07.88,3.3.88s2.3-.25,3.19-.74c.9-.5,1.59-1.22,2.09-2.16.5-.94.74-2.08.74-3.41l1.01.74h-7.2v-1.61h8.04v.26c0,1.86-.33,3.43-1,4.72-.66,1.29-1.58,2.26-2.76,2.92-1.18.66-2.53.98-4.07.98Z"/><path d="M330.86,65.96v-16.51h1.27l.5,2.09v14.42h-1.78ZM342.29,65.96l-10.42-14.16.26-2.35,10.42,14.16-.26,2.35ZM342.29,65.96l-.5-1.99v-14.52h1.78v16.51h-1.27Z"/><path d="M99.07,40.63V6.4h7.66v34.23h-7.66ZM104.94,28.17v-5.96h7.37c.94,0,1.79-.19,2.54-.56.76-.37,1.37-.93,1.82-1.67.45-.74.68-1.63.68-2.67s-.23-1.97-.68-2.72c-.45-.74-1.06-1.3-1.82-1.67-.76-.37-1.61-.56-2.54-.56h-7.37v-5.96h8.49c2.17,0,4.13.44,5.89,1.31,1.76.87,3.15,2.13,4.17,3.76,1.02,1.63,1.53,3.58,1.53,5.84s-.51,4.16-1.53,5.79c-1.02,1.63-2.41,2.88-4.17,3.76-1.76.87-3.73,1.31-5.89,1.31h-8.49Z"/><path d="M126.71,40.63V6.4h7.66v34.23h-7.66ZM131.31,26.38v-6.64h19.1v6.64h-19.1ZM147.9,40.63V6.4h7.71v34.23h-7.71Z"/><path d="M159.63,40.63V6.4h7.66v34.23h-7.66Z"/><path d="M171.36,40.63V6.4h7.66v34.23h-7.66ZM177.28,40.63v-6.69h16.92v6.69h-16.92Z"/><path d="M196.09,40.63V6.4h7.66v34.23h-7.66Z"/><path d="M207.83,40.63V6.4h7.66v34.23h-7.66ZM213.69,28.17v-5.96h7.37c.94,0,1.79-.19,2.54-.56.76-.37,1.37-.93,1.82-1.67.45-.74.68-1.63.68-2.67s-.23-1.97-.68-2.72c-.45-.74-1.06-1.3-1.82-1.67-.76-.37-1.61-.56-2.54-.56h-7.37v-5.96h8.49c2.17,0,4.13.44,5.89,1.31,1.76.87,3.15,2.13,4.17,3.76,1.02,1.63,1.53,3.58,1.53,5.84s-.51,4.16-1.53,5.79c-1.02,1.63-2.41,2.88-4.17,3.76-1.76.87-3.73,1.31-5.89,1.31h-8.49Z"/><path d="M235.46,40.63V6.4h7.66v34.23h-7.66ZM241.33,28.17v-5.96h7.37c.94,0,1.79-.19,2.54-.56.76-.37,1.37-.93,1.82-1.67.45-.74.68-1.63.68-2.67s-.23-1.97-.68-2.72c-.45-.74-1.06-1.3-1.82-1.67-.76-.37-1.61-.56-2.54-.56h-7.37v-5.96h8.49c2.17,0,4.13.44,5.89,1.31,1.76.87,3.15,2.13,4.17,3.76,1.02,1.63,1.53,3.58,1.53,5.84s-.51,4.16-1.53,5.79c-1.02,1.63-2.41,2.88-4.17,3.76-1.76.87-3.73,1.31-5.89,1.31h-8.49Z"/><g id="hSBdJ2"><path d="M0,21.35h38.43c.92,0,2.24,1.36,2.35,2.34.35,3.3-2.72,6.09-5.9,6.14l-27.31.09L0,64.23h12.92l5.56-21.61,23.52-.1c4.72.92,2.1,6.85-1.17,7.96-2.01.63-10.16.65-13.28.82l-3.86,12.93h15.08s5.81.34,12.48-5.34c6.68-5.68,10.82-18.73,3.9-25.74-.35-.36-1.89-1.36-1.92-1.48-.09-.44,1.46-3.84,1.69-4.75,2.36-9.3-3.56-17.79-12.93-19.16l-38.96-.02L0,21.35Z"/></g><rect x="81.22" y="1.47" width=".9" height="69.04" transform="translate(163.33 71.99) rotate(180)"/></g></svg>