<svg xmlns="http://www.w3.org/2000/svg" viewBox="0 0 24 24" version="1.1">
  <path d="M2.208 0.015984C1.682784 0.09871200000000001 1.236912 0.300936 0.8601840000000001 0.6273120000000001C0.534432 0.9095040000000001 0.2406 1.378656 0.10315200000000001 1.836L0.038256000000000005 2.052 0.025127999999999998 3.2880000000000003C0.017904 3.9678 0.017688 6.8675999999999995 0.024672 9.732L0.03732 14.94 0.08812800000000001 15.108C0.24648 15.631632 0.41270400000000007 15.919152 0.754776 16.261224000000002C1.12944 16.635912 1.5216960000000002 16.846512 2.044992 16.954008C2.2083120000000003 16.987560000000002 2.605248 16.992 5.43576 16.992C8.920584 16.992 8.722871999999999 16.999752 8.865432 16.85736C9.105 16.618032 9.059544 16.25424 8.766 16.061856000000002C8.706336 16.022736000000002 8.491032 16.019136000000003 5.48508 16.006824C1.903704 15.992160000000002 2.193 16.006584 1.824 15.8244C1.579368 15.703608000000001 1.310472 15.433368000000002 1.190544 15.187776C1.019784 14.838047999999999 1.032 15.247512 1.032 9.87096L1.032 5.016 10.523568000000001 5.016L20.01516 5.016 20.021568 7.593936L20.028 10.171872 20.101056 10.275936C20.204112 10.422696 20.346528000000003 10.496016000000001 20.525232 10.494336C20.721576 10.492488 20.864592 10.403664 20.957496000000003 10.225848000000001L21.02508 10.09644 21.017616 6.1222080000000005C21.010608 2.38932 21.007512 2.13708 20.966856 1.968C20.82924 1.395912 20.485608 0.858888 20.035584 0.5126160000000001C19.855872 0.374328 19.54188 0.20750400000000002 19.316784 0.130752C18.909096 -0.008303999999999999 19.462872 -0.000288 10.502856000000001 0.0032640000000000004C5.973696 0.005064 2.241 0.0108 2.208 0.015984M2.1700320000000004 1.043568C1.777776 1.1289360000000002 1.3558320000000001 1.4650320000000001 1.1751600000000002 1.836C1.0398 2.113944 1.032 2.184912 1.032 3.1370400000000003L1.032 4.008 10.524000000000001 4.008L20.016000000000002 4.008 20.016000000000002 3.194112C20.016000000000002 2.264352 19.998984 2.119584 19.855344000000002 1.8269520000000001C19.788144 1.6900320000000002 19.717008 1.5955920000000001 19.572768 1.451664C19.351944 1.23132 19.171584000000003 1.125456 18.897696 1.0554000000000001C18.714792 1.0086240000000002 18.603024 1.008024 10.51416 1.0098960000000001C3.80784 1.0114800000000002 2.289432 1.0176 2.1700320000000004 1.043568M3.258744 1.798536C2.744256 1.999656 2.605128 2.642832 2.991648 3.033288C3.353184 3.39852 3.97344 3.2856240000000003 4.203936 2.812632C4.28796 2.640168 4.283040000000001 2.362896 4.1926559999999995 2.178864C4.023888 1.835184 3.6031920000000004 1.663872 3.258744 1.798536M5.287032 1.785336C5.108256 1.8437519999999998 4.929816 2.00124 4.8353280000000005 2.184C4.772256 2.305992 4.7593440000000005 2.60148 4.810392 2.755128C4.889616 2.99364 5.133312 3.198552 5.386872 3.239808C5.840256 3.3136080000000003 6.229080000000001 3.007368 6.258744 2.553096C6.273504000000001 2.32716 6.2227440000000005 2.175384 6.078888 2.0153760000000003C5.928816 1.848456 5.769312 1.770696 5.556 1.760424C5.456208 1.7556239999999999 5.347008 1.7657280000000002 5.287032 1.785336M7.23816 1.8099600000000002C6.549408 2.100336 6.650472000000001 3.107568 7.381488 3.23844C7.64772 3.2860799999999997 7.880064000000001 3.2087760000000003 8.061216 3.0122400000000003C8.208312 2.8526640000000003 8.261327999999999 2.718648 8.261327999999999 2.506488C8.261327999999999 2.289984 8.188488000000001 2.115144 8.036376 1.9666560000000002C7.897488 1.831056 7.754424 1.770288 7.548 1.7591999999999999C7.409592 1.75176 7.355016 1.7606879999999998 7.23816 1.8099600000000002M16.992 11.01468C15.7344 11.12088 14.611872 11.549520000000001 13.566096 12.322848C13.228368000000001 12.572591999999998 12.572591999999998 13.228368000000001 12.322848 13.566096C11.629344 14.50392 11.232384000000001 15.45384 11.061696 16.584C10.999584 16.995216 10.986312 17.859816 11.036256 18.240000000000002C11.270328 20.021688 12.086328 21.485927999999998 13.464 22.596408C15.015744 23.847192 17.162112 24.302736000000003 19.116 23.795976C21.2766 23.2356 22.977912 21.641928 23.676503999999998 19.524C23.877744 18.913872 23.969544 18.386544 23.99196 17.712C24.063144 15.569064000000001 23.105496000000002 13.578192000000001 21.381287999999998 12.284616C20.498712 11.62248 19.450968 11.199311999999999 18.325968 11.050608C17.999928 11.007504 17.300064 10.98864 16.992 11.01468M17.1 12.014472C16.590672 12.067056 16.238136 12.135624 15.857184 12.256272000000001C14.143128 12.799032 12.810456 14.123544 12.26592 15.825552C12.079872 16.407048 12.013992000000002 16.843872 12.013992000000002 17.496C12.013992000000002 18.190176 12.088128000000001 18.646752 12.304344 19.284C12.693216000000001 20.430168 13.484231999999999 21.439584 14.532528000000001 22.127448C15.022319999999999 22.448856000000003 15.79728 22.762536 16.397256000000002 22.882224C17.181624 23.038704000000003 18.092015999999997 23.021856 18.816 22.837464C20.966184000000002 22.289808 22.554912 20.5674 22.923816 18.384C22.985328 18.02004 23.00724 17.352408 22.969896 16.98C22.866288 15.946416 22.48332 14.973576 21.855336 14.148624C21.65844 13.889976 21.232008 13.45308 20.965416 13.236888C20.201376 12.617256000000001 19.272864 12.209352 18.288 12.060696C18.042888 12.023688 17.293176 11.994528 17.1 12.014472M17.370336 14.015903999999999C17.246304000000002 14.053248 17.135472 14.140344 17.069784 14.252088L17.004 14.364 16.997328 15.954984000000001C16.993104000000002 16.965072000000003 16.999464 17.578464 17.014752 17.634984000000003C17.04756 17.756328 17.172264 17.900952 17.290296 17.954568C17.3808 17.99568 17.470344 17.998992 18.506232 17.999472L19.62444 18 19.730232 17.944152C19.883496 17.863248000000002 19.974432 17.722535999999998 19.987152000000002 17.546664C19.992792 17.468808 19.984824 17.367 19.969464000000002 17.320464C19.933439999999997 17.211288 19.75896 17.050848000000002 19.640520000000002 17.017944C19.58364 17.002152 19.249848 16.992216 18.774 16.992144L18 16.992 17.999472 15.69C17.998872 14.224632 18.004152 14.270112 17.817096 14.115816C17.680512 14.003160000000001 17.526816 13.968768 17.370336 14.015903999999999" stroke="none" fill="currentColor" fill-rule="evenodd" stroke-width="0.024"></path>
</svg>