<svg xmlns="http://www.w3.org/2000/svg" viewBox="0 0 24 24" version="1.1">
  <path d="M11.592 0.034152C10.802376 0.158424 10.178016 0.474192 9.622512 1.030248C9.08364 1.569624 8.765616 2.181216 8.63904 2.9216159999999998C8.595528 3.176088 8.592 3.317256 8.592 4.800528L8.592 6.404304000000001 7.680168 9.364152C7.1786639999999995 10.992072 6.751056 12.3618 6.729912000000001 12.408C6.622248000000001 12.643296 6.40164 12.84024 6.132000000000001 12.941784L5.988 12.996 3.36 13.008000000000001L0.732 13.02 0.6 13.082736C0.328512 13.211808 0.129768 13.432896 0.048384 13.696439999999999C0.003288 13.842384 0.000024 13.917936 0.000288 14.80452C0.000576 15.805104000000002 0.0075840000000000005 15.884304 0.11390400000000002 16.092264C0.177696 16.217015999999997 0.37658400000000003 16.418328 0.509328 16.492536C0.6226320000000001 16.555848 0.7631519999999999 16.597368 0.9420000000000001 16.620312000000002L1.056 16.634952000000002 1.05648 17.695464C1.05684 18.519096 1.065216 18.814968 1.093968 19.02C1.11432 19.1652 1.135224 19.363128 1.140384 19.459824C1.1473680000000002 19.590552000000002 1.1677920000000002 19.673664 1.219968 19.783824C1.25856 19.865328 1.308576 19.991400000000002 1.331112 20.064C1.353672 20.1366 1.399656 20.266199999999998 1.4333280000000002 20.352C1.531536 20.602248 2.827224 23.280528 2.911416 23.40732C3.008232 23.553096 3.227304 23.703552000000002 3.375 23.725704C3.63276 23.764368 3.8527919999999996 23.684088 4.021152 23.489928C4.1254800000000005 23.369664 5.408496 20.851248000000002 5.591664 20.407248C5.733144 20.064336 5.85876 19.635072 5.930904 19.248C5.9778 18.996408000000002 5.983296 18.868512 5.993136 17.802L6.0039359999999995 16.632 6.919968 16.631832000000003C7.915128000000001 16.63164 8.132808 16.613544 8.443344 16.505088C8.7366 16.402704 8.964336000000001 16.257336000000002 9.203327999999999 16.02C9.588887999999999 15.63708 9.483048 15.909672 10.925184 11.586C11.628528 9.477312 12.2094 7.752408 12.216000000000001 7.752888C12.2226 7.753368000000001 13.9128 10.70448 15.972 14.310888C19.613064 20.687736 19.720608000000002 20.872632 19.884 21.03624C20.272104000000002 21.42492 20.862047999999998 21.5652 21.384 21.392976C21.496199999999998 21.355944 21.595848 21.325296 21.605424 21.32484C21.615000000000002 21.324384 21.95316 21.8802 22.356912 22.56C22.760640000000002 23.239800000000002 23.114616 23.821728 23.143488 23.853168C23.316864 24.041904 23.674344 24.041688 23.8554 23.852736C23.979864 23.722872 24.033912 23.492328 23.97576 23.3394C23.96244 23.304336 23.62224 22.720968 23.21976 22.043015999999998C22.817304 21.365088 22.488 20.801184 22.488 20.789904C22.488 20.778624 22.52664 20.732208 22.573895999999998 20.686704000000002C22.71276 20.552976 22.881287999999998 20.28084 22.944864 20.087664C22.994976 19.935432000000002 23.004 19.862208 23.004 19.608C23.004 19.358448 22.994856000000002 19.281528 22.949568 19.150584000000002C22.915344 19.051632 21.541056 16.651368 19.249464 12.688248000000002L15.603792 6.383376 15.593808 4.757688C15.582624 2.936784 15.581784 2.9262960000000002 15.408 2.397024C15.020256000000002 1.216224 14.030088 0.33412800000000004 12.796776 0.07077599999999999C12.496848 0.006744000000000001 11.884536 -0.01188 11.592 0.034152M11.710056 1.03224C11.121696 1.13184 10.554048 1.452432 10.185024 1.8935760000000001C9.94152 2.184648 9.776304 2.504328 9.665808 2.898192C9.615384 3.077952 9.613416 3.1314720000000005 9.605640000000001 4.54176L9.5976 5.999544 12.09648 5.999544L14.595384 5.999544 14.585496000000001 4.577784C14.576952000000002 3.348888 14.570088 3.1324560000000004 14.534904 2.98248C14.296944 1.967856 13.515384 1.21896 12.511872 1.043952C12.296064000000001 1.00632 11.89764 1.000512 11.710056 1.03224M3.0025920000000004 3.0492480000000004C1.963632 3.274104 1.205424 4.066848 1.02972 5.112C1.01688 5.188296 1.00764 6.59112 1.007808 8.436L1.0081200000000001 11.628 1.063368 11.735784C1.094856 11.7972 1.162824 11.874624 1.221384 11.915784C1.3129680000000001 11.980152 1.3432320000000002 11.988 1.5 11.988C1.656696 11.988 1.687008 11.980152 1.7780880000000001 11.916C1.8343200000000002 11.8764 1.9054560000000003 11.796408 1.936152 11.738232L1.992 11.63244 1.992 9.308232L1.992 6.984 3.492 6.984L4.992 6.984 4.992144 9.27C4.992216 10.67916 5.00124 11.588208 5.01564 11.64C5.0708400000000005 11.838336 5.285760000000001 11.998944 5.496 11.998944C5.705856 11.998944 5.919048 11.842416 5.976192 11.646408000000001C5.994912 11.582112 6.000168 10.623408 5.994312 8.328C5.9850959999999995 4.709808 6.000288 5.016 5.806464 4.541328C5.508264 3.811056 4.8388800000000005 3.244656 4.056 3.060144C3.7747200000000003 2.993856 3.282072 2.988768 3.0025920000000004 3.0492480000000004M3.15444 4.041936C2.745864 4.135248 2.3474640000000004 4.453224 2.15952 4.836C2.0469600000000003 5.065200000000001 2.011848 5.2478880000000006 2.007696 5.625528L2.004 5.964 3.498 5.970192L4.992 5.97636 4.992 5.644032C4.992 5.098992 4.8858239999999995 4.79784 4.58028 4.476168C4.40172 4.288176 4.229928 4.174752000000001 3.989808 4.086288C3.787512 4.011768 3.380976 3.9901920000000004 3.15444 4.041936M9.398472 7.206C8.6622 9.618768 7.671696 12.785952000000002 7.62396 12.880176C7.34892 13.42296 6.817296 13.833936 6.235008 13.953888000000001C6.0729120000000005 13.987295999999999 5.738232 13.992 3.529008 13.992L1.008 13.992 1.008 14.807712000000002L1.008 15.623424 4.4117999999999995 15.623664C6.76044 15.623832000000002 7.859352 15.61584 7.956696 15.59784C8.221608 15.548856 8.49156 15.372576 8.636376 15.153936C8.689416000000001 15.073872 9.075288 13.946112 10.042728 11.043792C10.776024 8.843904 11.376 7.035888 11.376 7.026C11.376 7.016088 10.944647999999999 7.008 10.417463999999999 7.008L9.458904 7.008 9.398472 7.206M12.967704000000001 7.026C12.973488 7.035912000000001 14.671296 10.0086 16.740576 13.632C18.952344 17.504832 20.538432 20.257392 20.589048 20.31072C20.70204 20.429784 20.86428 20.480856000000003 21.020688 20.446656C21.193584 20.408832 21.835104 20.01348 21.922344000000002 19.891008000000003C22.002096 19.779048 22.031208 19.589088 21.98772 19.464384C21.97344 19.423416 20.350896 16.603944000000002 18.382032 13.198944000000001L14.802312 7.008 13.879752 7.008C13.372319999999998 7.008 12.961896 7.016088 12.967704000000001 7.026M2.0681760000000002 17.79C2.072472 18.426912 2.0847360000000004 18.961512 2.095416 18.978C2.1105840000000002 19.001448 2.4235439999999997 19.008 3.5266080000000004 19.008L4.938408 19.008 4.957224 18.954C4.967568 18.924312 4.980384 18.389688 4.985688 17.766000000000002L4.995336 16.632 3.527856 16.632L2.060352 16.632 2.0681760000000002 17.79M2.3922480000000004 20.034C2.410008 20.084616 3.24924 21.83448 3.402264 22.139928L3.510456 22.35588 4.083216 21.209064C4.3982399999999995 20.578295999999998 4.656 20.046432 4.656 20.027112C4.656 19.996776 4.500696 19.992 3.516744 19.992C2.442144 19.992 2.378352 19.994376000000003 2.3922480000000004 20.034" stroke="none" fill="currentColor" fill-rule="evenodd" stroke-width="0.024"></path>
</svg>