<svg xmlns="http://www.w3.org/2000/svg" viewBox="0 0 24 24" version="1.1">
  <path d="M11.040000000000001 0.035904C8.42748 0.257088 6.065112 1.2541920000000002 4.104024 2.963448C-0.015168000000000001 6.55368 -1.182792 12.51072 1.276704 17.388C3.326592 21.452952000000003 7.457352 24 12 24C13.889111999999999 24 15.703296 23.569944 17.388 22.722792000000002C19.507656 21.656928 21.267984000000002 19.983552 22.444584000000003 17.916C23.304456000000002 16.404984000000002 23.866968 14.548704 23.966616000000002 12.89328C23.975592 12.744384 23.992176 12.616848000000001 24.003456 12.609863999999998C24.01476 12.60288 24.023832000000002 12.314304 24.02364 11.968584C24.023424000000002 11.622864 24.014256000000003 11.354208 24.00324 11.37156C23.99148 11.390136 23.976504 11.28636 23.96688 11.11956C23.871456000000002 9.46524 23.307912 7.601088 22.444584000000003 6.0840000000000005C21.586632 4.576392 20.380488 3.236952 18.982008 2.238768C17.382792000000002 1.09728 15.546792 0.3672 13.620000000000001 0.106584C12.849120000000001 0.002304 11.782104 -0.026928000000000004 11.040000000000001 0.035904M11.172 1.0338C9.276432 1.184568 7.486992000000001 1.7991119999999998 5.916 2.8388880000000003C4.753512 3.60828 3.60828 4.753512 2.8388880000000003 5.916C1.297152 8.24544 0.69912 11.049312 1.154784 13.812000000000001C1.403136 15.317616000000001 1.9851839999999998 16.79412 2.8388880000000003 18.084C3.60828 19.246488 4.753512 20.39172 5.916 21.161112C8.245104 22.702632 11.049719999999999 23.300808 13.812000000000001 22.845216C15.806016 22.51632 17.710056 21.615528 19.224 20.284824C20.708664 18.979872 21.768384 17.402808 22.404287999999998 15.552C22.993560000000002 13.836936 23.1444 12.00192 22.845216 10.188C22.523136 8.235264 21.639696 6.343392 20.351616 4.848C20.07108 4.522320000000001 19.572984 4.021920000000001 19.224 3.715176C17.580744 2.270808 15.493416 1.3416 13.308 1.081584C12.696264 1.0087920000000001 11.75196 0.987672 11.172 1.0338M16.935648 5.933088C16.830192 5.946432 15.855048 6.33756 13.015416 7.5054240000000005C9.681504 8.876592 9.225216000000001 9.070368 9.147792 9.147792C9.070368 9.225192 8.875896000000001 9.683016 7.501368 13.023792L5.942760000000001 16.812 5.932536 17.033424C5.923944 17.22 5.930976 17.279328 5.977248 17.410415999999998C6.12024 17.815488000000002 6.486696 18.075120000000002 6.9143040000000004 18.074352C7.0120320000000005 18.074160000000003 7.140599999999999 18.058944 7.2 18.040536C7.306056 18.007632 14.620512 15.002592 14.733984000000001 14.94528C14.808288 14.907768 14.907744 14.808312 14.945304 14.733984000000001C14.961408000000002 14.702088 15.668088000000001 12.9912 16.515696000000002 10.932L18.056784 7.188 18.067224000000003 6.966576C18.076056 6.7796400000000006 18.06912 6.720912 18.022752 6.589583999999999C17.861856 6.133848 17.426448 5.8708800000000005 16.935648 5.933088M13.719263999999999 8.304648C11.899464 9.055296 10.406808 9.673200000000001 10.402248 9.677760000000001C10.397688 9.68232 11.277312 10.56936 12.356976000000001 11.648976000000001L14.320008000000001 13.611912 15.682608 10.303944000000001C16.432032 8.484576 17.050584 6.982512 17.05716 6.966C17.063760000000002 6.9495119999999995 17.059872 6.936864 17.048568 6.93792C17.037264 6.938976000000001 15.539064 7.554023999999999 13.719263999999999 8.304648M9.641568000000001 10.479624000000001C9.620904 10.530432 9.00372 12.029136 8.270064 13.810056C7.536408 15.591000000000001 6.939456 17.051472 6.943536000000001 17.055552000000002C6.950328 17.06232 13.582704000000001 14.337288 13.598952 14.321040000000002C13.602863999999999 14.317152 12.722496000000001 13.430424 11.642592 12.350591999999999L9.679128 10.387224 9.641568000000001 10.479624000000001M0.010488 12C0.010488 12.349800000000002 0.013848 12.492912 0.017928 12.318C0.022032000000000003 12.143088 0.022032000000000003 11.856912000000001 0.017928 11.682C0.013848 11.507088 0.010488 11.6502 0.010488 12" stroke="none" fill="currentColor" fill-rule="evenodd" stroke-width="0.024"></path>
</svg>