<svg xmlns="http://www.w3.org/2000/svg" viewBox="0 0 24 24" version="1.1">
  <path d="M13.088952 0.047496000000000003C12.59928 0.175872 12.258023999999999 0.505008 12.068184 1.032L12.012 1.188 12.005400000000002 11.94C11.999448 21.609456 12.002568 22.70916 12.03624 22.862448C12.147816 23.370216 12.488976000000001 23.736552 13.032 23.931672000000002L13.188 23.987712000000002 15.431040000000001 23.994576000000002C17.900807999999998 24.002112 17.87064 24.003648000000002 18.181056 23.855496000000002C18.563664 23.67288 18.82752 23.339807999999998 18.950616 22.884C18.9948 22.720416 18.996 22.433472 18.996 11.976C18.996 1.815408 18.99372 1.227792 18.953927999999998 1.083816C18.807672 0.554592 18.426216 0.190776 17.867928 0.047976000000000005C17.686824 0.0016560000000000001 17.603856 0.000048 15.470160000000002 0.00132C13.39128 0.002568 13.249848 0.0053040000000000006 13.088952 0.047496000000000003M13.246104 1.063752C13.16724 1.105464 13.123944 1.1515199999999999 13.074336 1.246488L13.008000000000001 1.373472 13.008000000000001 2.1867360000000002L13.008000000000001 3 13.806000000000001 3.000528C14.531496 3.001008 14.612712000000002 3.005088 14.700000000000001 3.045504C15.128231999999999 3.243768 15.079248000000002 3.867864 14.626464 3.981888C14.5626 3.9979679999999997 14.231712000000002 4.008 13.765368 4.008L13.008000000000001 4.008 13.008000000000001 5.508L13.008000000000001 7.008 13.820231999999999 7.008C14.624160000000002 7.008 14.63352 7.008576000000001 14.738232 7.063848C14.796408000000001 7.094544 14.8764 7.16568 14.916 7.2219120000000006C14.980152 7.312992 14.988 7.343304 14.988 7.5C14.988 7.656696 14.980152 7.687008 14.916 7.778088C14.8764 7.83432 14.796408000000001 7.905456 14.738232 7.936152C14.63352 7.991424 14.624160000000002 7.992 13.820231999999999 7.992L13.008000000000001 7.992 13.008000000000001 9.492L13.008000000000001 10.992 13.782 10.992144C14.210184 10.992216 14.593536 11.002704000000001 14.64 11.015640000000001C14.757408000000002 11.048304 14.902008 11.174568 14.954568 11.290296C15.070512 11.54556 14.946384 11.852616 14.682768000000001 11.962728C14.608224000000002 11.99388 14.463192000000001 12 13.800768000000001 12L13.008000000000001 12 13.008000000000001 13.5L13.008000000000001 15 13.800768000000001 15C14.663687999999999 15 14.697312000000002 15.004512 14.841023999999999 15.139272C15.123696 15.404328 15.000623999999998 15.887664000000001 14.626464 15.981888000000001C14.5626 15.997968 14.231712000000002 16.008 13.765368 16.008L13.008000000000001 16.008 13.008000000000001 17.508L13.008000000000001 19.008 13.820231999999999 19.008C14.624160000000002 19.008 14.63352 19.008576 14.738232 19.063848C14.796408000000001 19.094544 14.8764 19.165680000000002 14.916 19.221912C14.980152 19.312992 14.988 19.343304 14.988 19.5C14.988 19.656696 14.980152 19.687008000000002 14.916 19.778088C14.8764 19.834319999999998 14.796408000000001 19.905456 14.738232 19.936152C14.63352 19.991424000000002 14.624160000000002 19.992 13.820231999999999 19.992L13.008000000000001 19.992 13.008000000000001 21.320232L13.008000000000001 22.64844 13.063752 22.753896C13.105464000000001 22.83276 13.151520000000001 22.876056 13.246488000000001 22.925664L13.373472 22.992 15.49116 22.992C17.008152 22.992 17.631984000000003 22.984272 17.690424 22.964736000000002C17.793936 22.930128 17.896608 22.835784 17.947968 22.728C17.985167999999998 22.649952000000003 17.988 21.887688 17.988 11.988C17.988 2.117496 17.985072000000002 1.326696 17.94828 1.26C17.890224 1.154736 17.80836 1.086456 17.690304 1.044816C17.59956 1.0128000000000001 17.310096 1.008 15.468768 1.008L13.351560000000001 1.008 13.246104 1.063752M7.32876 3.290136C7.2081360000000005 3.325104 7.0284 3.4592159999999996 6.94572 3.576C6.903648 3.6353999999999997 6.515544 4.4778 6.08328 5.448C5.6509920000000005 6.418200000000001 5.231328 7.3578 5.150664 7.5360000000000005L5.0040000000000004 7.86 5.0040000000000004 14.82C5.0040000000000004 20.380584000000002 5.010192 21.812640000000002 5.034768000000001 21.942384C5.260656 23.134439999999998 6.297672 24 7.5 24C8.701584 24 9.739488 23.133696 9.965232 21.942384C9.989808 21.812640000000002 9.996 20.380584000000002 9.996 14.82L9.996 7.86 9.087912000000001 5.82C8.588448 4.698 8.151456 3.7276320000000003 8.1168 3.663648C7.954896000000001 3.3645840000000002 7.619808000000001 3.205776 7.32876 3.290136M7.0141919999999995 5.836992C6.748296 6.434832 6.523728 6.942528 6.515136 6.965159999999999C6.500520000000001 7.003632 6.564696 7.0063200000000005 7.497744 7.0063200000000005C8.046792 7.0063200000000005 8.496 7.000032 8.496 6.992304C8.496 6.976776 7.571976000000001 4.892448 7.5263040000000005 4.804992C7.500288 4.7551440000000005 7.452168 4.852104 7.0141919999999995 5.836992M6.02808 8.052624C6.006936 8.09904 6 9.334464 6 13.057128L6 18 6.504048 18L7.00812 18 7.002048 13.002L6.996 8.004 6.52608 7.997496L6.05616 7.991016 6.02808 8.052624M8.008008 8.008008C7.9992 8.016792 7.992 10.268592 7.992 13.012008000000002L7.992 18 8.496 18L9 18 9 13.057128C9 9.357216000000001 8.992992000000001 8.098896 8.972136 8.053128000000001L8.944296 7.992 8.484143999999999 7.992C8.231064 7.992 8.016792 7.9992 8.008008 8.008008M6 19.5L6 19.992 7.5 19.992L9 19.992 9 19.5L9 19.008 7.5 19.008L6 19.008 6 19.5M6 21.307584000000002C6 21.476760000000002 6.011712 21.679272 6.0259920000000005 21.757584C6.130824 22.331712000000003 6.563664 22.802736000000003 7.116264000000001 22.944072000000002C7.969632 23.162328 8.816232000000001 22.621632 8.974008 21.757584C8.988288 21.679272 9 21.476760000000002 9 21.307584000000002L9 21 7.5 21L6 21 6 21.307584000000002" stroke="none" fill="currentColor" fill-rule="evenodd" stroke-width="0.024"></path>
</svg>