<svg xmlns="http://www.w3.org/2000/svg" viewBox="0 0 24 24" version="1.1">
  <path d="M1.1280000000000001 3.038376C0.8813759999999999 3.091392 0.6411600000000001 3.222648 0.457296 3.4047840000000003C0.274224 3.5861520000000002 0.176928 3.74472 0.079776 4.0200000000000005L0.012 4.212 0.004968 11.892C-0.000024 17.326176 0.005544 19.625832000000003 0.024 19.75608C0.10919999999999999 20.357616 0.517296 20.795832 1.13784 20.952168C1.3260480000000001 20.999592 1.42008 21 12.024000000000001 21C22.632648000000003 21 22.721856000000002 20.999616 22.90752 20.95212C23.186784 20.880696 23.340144 20.794248 23.546424000000002 20.592C23.764056 20.37864 23.876544 20.174952 23.965152 19.833864L24.024144 19.606824 24.017712000000003 11.945424000000001C24.011736000000003 4.845168 24.008304 4.272072 23.970696 4.121112C23.866848 3.7041600000000003 23.589312 3.358536 23.208000000000002 3.1713120000000004C22.828344 2.98488 23.876184000000002 3.0006000000000004 11.976 3.0028319999999997C2.9154 3.004512 1.2601920000000002 3.009936 1.1280000000000001 3.038376M1.2486 4.06428C1.1682240000000002 4.1053679999999995 1.12596 4.148808 1.0806 4.23696L1.02 4.354704 1.0132320000000001 11.963352C1.008216 17.601648 1.013544 19.597920000000002 1.033824 19.67208C1.0691279999999999 19.801272 1.173264 19.906368 1.3132320000000002 19.95408C1.414056 19.988424000000002 2.425776 19.991952 12.034272 19.991471999999998C22.329048 19.990968 22.646928 19.989624 22.742376 19.94628C22.848144 19.898232 22.920168 19.8126 22.964328 19.682424C22.984992 19.621488 22.992 17.670768000000002 22.992 11.977512L22.992 4.354176 22.938 4.247088C22.895712000000003 4.163232 22.855728 4.125672 22.753704000000003 4.074L22.623383999999998 4.008 11.989704000000001 4.008672L1.356 4.0093440000000005 1.2486 4.06428M0.011856 12C0.011856 16.2306 0.014616 17.961312 0.018000000000000002 15.846C0.021384 13.730712000000002 0.021384 10.269312 0.018000000000000002 8.154C0.014616 6.038712 0.011856 7.769400000000001 0.011856 12M19.332 8.026872C19.2792 8.046216000000001 19.197744 8.102976 19.150992 8.153016000000001C19.10424 8.203056 18.247152 9.678840000000001 17.246376 11.432544C15.759528000000001 14.038008000000001 15.421296 14.615136000000001 15.396696 14.588544C15.380136000000002 14.570640000000001 14.987736000000002 14.100648000000001 14.524680000000002 13.544112C13.973016 12.88104 13.644383999999999 12.5058 13.571424 12.455592C13.380336 12.32412 13.221336 12.281736 12.96 12.292560000000002C12.692447999999999 12.303648 12.524376000000002 12.367968 12.355008000000002 12.524111999999999C12.29748 12.577128 11.872944 13.073736 11.411616 13.627656C10.704960000000002 14.476152 10.568664 14.628552 10.54632 14.595384C10.531728000000001 14.573712000000002 10.025064 13.729800000000001 9.420408 12.72C8.554608 11.274072 8.294736 10.858104 8.197224 10.762080000000001C7.80456 10.375344 7.195608 10.375344 6.802704000000001 10.762080000000001C6.7042079999999995 10.858992 6.405023999999999 11.34084 5.343408 13.112328L4.008 15.340656 4.008 15.480768000000001C4.008 15.653016 4.036536 15.732576 4.135464000000001 15.83604C4.340592 16.0506 4.62996 16.058904 4.836888 15.856176C4.907664 15.786864 5.3329439999999995 15.098496 6.2175839999999996 13.621392C7.426296 11.603184 7.497888 11.489640000000001 7.5305040000000005 11.538768C7.549488 11.567352000000001 8.05392 12.403728000000001 8.651496 13.397376000000001C9.269328 14.424743999999999 9.785184000000001 15.256535999999999 9.847416 15.325824C10.059096 15.561432000000002 10.401504000000001 15.68136 10.714488000000001 15.629496000000001C10.898184 15.599064 11.089224 15.516936 11.206944 15.41784C11.252568 15.379415999999999 11.671896 14.889000000000001 12.138768 14.328000000000001C12.605664 13.767 12.99492 13.305959999999999 13.003824000000002 13.303464000000002C13.012728000000001 13.300968 13.3656 13.715832 13.788 14.2254C14.210400000000002 14.734968 14.613168 15.214152 14.683032 15.290256000000001C14.91048 15.538032000000001 15.145512 15.635544 15.477072000000001 15.61968C15.647376000000001 15.611544 15.71424 15.595991999999999 15.847968 15.5334C16.160904 15.386976 16.079352 15.516048 18.12 11.937624000000001C20.113224000000002 8.442408 20.027231999999998 8.607312 19.982064 8.366520000000001C19.965 8.275656000000001 19.825512 8.102424000000001 19.729344 8.052696000000001C19.625328 7.998912000000001 19.44108 7.986936 19.332 8.026872" stroke="none" fill="currentColor" fill-rule="evenodd" stroke-width="0.024"></path>
</svg>