<svg xmlns="http://www.w3.org/2000/svg" viewBox="0 0 24 24" version="1.1">
  <path d="M11.16 0.035688000000000004C8.876280000000001 0.24621600000000002 6.793104 1.232544 5.228976 2.843832C4.709592 3.3788880000000003 4.367424 3.807312 3.992544 4.392C3.054624 5.854824 2.534304 7.561656 2.51328 9.24456L2.508 9.667152 2.581056 9.771576C2.788848 10.068552 3.2094720000000003 10.07028 3.416736 9.775056C3.4856400000000005 9.676919999999999 3.48816 9.663192 3.5067840000000006 9.283056C3.5629200000000005 8.137272 3.726456 7.32732 4.087224 6.408C4.789416 4.618704 6.068568 3.124536 7.721400000000001 2.162952C9.419903999999999 1.174752 11.330112000000002 0.8111520000000001 13.284 1.104072C14.443968 1.277976 15.42048 1.6409520000000002 16.515743999999998 2.305368C16.811328 2.484672 16.838136000000002 2.496 16.967208 2.496C17.431368 2.496 17.653272 1.923768 17.30448 1.626264C17.166048 1.5081600000000002 16.664832 1.2114 16.25448 1.0045199999999999C14.719848 0.230952 12.866064 -0.12160800000000001 11.16 0.035688000000000004M11.364 3.026928C10.141512 3.14268 8.915832 3.6444 7.92 4.436736C7.637544 4.661472000000001 7.1674560000000005 5.128776 6.950952 5.4C6.304368 6.210096000000001 5.840784 7.180704 5.639064 8.146752C5.500008 8.812631999999999 5.510424 8.201016000000001 5.50164 16.212C5.4958800000000005 21.483072 5.501040000000001 23.581512 5.519880000000001 23.646408C5.534352 23.696112 5.580696 23.776104 5.6228880000000006 23.824176C5.870928 24.10668 6.321168 24.031224 6.466728 23.682768000000003C6.500136 23.602776 6.5040000000000004 22.851312 6.504023999999999 16.422768C6.504023999999999 11.79396 6.5126159999999995 9.158424 6.52824 8.988C6.587112 8.345568 6.771960000000001 7.694352 7.066416000000001 7.0920000000000005C7.351152 6.50952 7.633464 6.112248 8.095368 5.644008C8.558760000000001 5.174304 8.963784 4.880496000000001 9.552840000000002 4.5868079999999996C11.085647999999999 3.8226 12.865704000000001 3.812352 14.394504 4.558968C14.962439999999999 4.836336 15.345528000000002 5.103504 15.789743999999999 5.5319519999999995C16.308 6.031872 16.633008 6.475512 16.932503999999998 7.0920000000000005C17.196936 7.636272 17.336952 8.076960000000001 17.4396 8.688C17.478288 8.918376 17.483040000000003 9.250055999999999 17.494968 12.552L17.508 16.164 17.573472 16.264680000000002C17.772528 16.570800000000002 18.215184 16.57224 18.421872 16.267392L18.492 16.164 18.492 12.564C18.492 8.719104 18.49464 8.81472 18.3714 8.202816C17.982288 6.271056 16.713383999999998 4.605048 14.946624 3.706248C14.213232 3.333144 13.413216 3.10116 12.6 3.0257519999999998C12.283488 2.9964 11.680368000000001 2.996976 11.364 3.026928M19.220448 4.077096C19.072296 4.171056 19.004856 4.28712 18.991344 4.471488000000001C18.97896 4.640664 18.967776 4.61508 19.271160000000002 5.112C19.607592 5.663016 19.878432 6.255768 20.085504 6.894264000000001C20.25156 7.406280000000001 20.35512 7.878912000000001 20.452248 8.568C20.473824 8.721192 20.48436 10.625064 20.494488 16.212C20.506968 23.085048 20.511048 23.657496000000002 20.547864 23.724C20.679432000000002 23.961696 20.967 24.063 21.204216000000002 23.95524C21.32436 23.900664 21.445656 23.764896 21.480144 23.646408C21.519216 23.512128 21.499512 8.835048 21.45984 8.52C21.266904 6.988344 20.82768 5.706456 20.086199999999998 4.51104C19.813248 4.071 19.736040000000003 4.008 19.469472 4.008C19.356384 4.008 19.308408 4.021296 19.220448 4.077096M11.496 6.035688C10.003824000000002 6.258168 8.862552 7.359 8.549016 8.878176C8.516615999999999 9.035256 8.510256 9.434136 8.502288 11.808C8.495712000000001 13.769904 8.50068 14.581848 8.519616 14.646408000000001C8.621400000000001 14.99304 9.079488000000001 15.112128 9.344136 14.860728C9.502776 14.710032 9.490656000000001 14.933616 9.505104 11.892C9.519768 8.806896 9.507984 9.013344 9.695400000000001 8.554536C9.954264 7.920744 10.484232 7.40568 11.126088 7.164096000000001C11.666592 6.960624 12.333408000000002 6.960624 12.873912 7.164096000000001C13.586952000000002 7.4324639999999995 14.132736000000001 8.010192 14.384231999999999 8.762808000000001C14.500464000000001 9.110592 14.495832000000002 8.79324 14.495928 16.446768000000002C14.496 22.853544 14.499863999999999 23.602776 14.533272 23.682768000000003C14.678832000000002 24.031224 15.129072 24.10668 15.377112 23.824176C15.419304 23.776104 15.465648000000002 23.696112 15.480072000000002 23.646408C15.498888 23.581584000000003 15.503976000000002 21.504192 15.498000000000001 16.308C15.490344000000002 9.62112 15.486576000000001 9.044856000000001 15.449208 8.864495999999999C15.321912000000001 8.249712 15.035616000000001 7.660968 14.643408 7.20732C13.869576 6.312264000000001 12.66024 5.8620719999999995 11.496 6.035688M11.796 9.541608C11.756400000000001 9.562128000000001 11.689032000000001 9.612648 11.646288 9.653880000000001C11.483664 9.810768 11.494200000000001 9.491832 11.501448 14.041752L11.508000000000001 18.159504 11.574216 18.25956C11.610624 18.314568 11.685431999999999 18.389376000000002 11.740464 18.425784C11.824463999999999 18.481392 11.866056 18.492 12 18.492C12.133944000000001 18.492 12.175536000000001 18.481392 12.259536 18.425784C12.314568 18.389376000000002 12.389376000000002 18.314568 12.425784 18.25956L12.492 18.159504 12.498552 14.041752C12.505896 9.440328 12.519552000000001 9.804696 12.333336000000001 9.636456C12.280632 9.588816 12.21036 9.539544 12.177192 9.52692C12.08496 9.491856 11.876496 9.499896 11.796 9.541608M2.7960000000000003 12.045504000000001C2.678352 12.099960000000001 2.582688 12.198912 2.533272 12.317231999999999C2.499936 12.397056 2.496048 12.997079999999999 2.496528 18.005232C2.4970320000000004 23.403624 2.49864 23.607432000000003 2.541504 23.7C2.72832 24.103512 3.295392 24.092952 3.4667280000000003 23.682768000000003C3.5000640000000005 23.602944 3.503952 23.002920000000003 3.5034720000000004 17.994768C3.502968 12.596376000000001 3.5013599999999996 12.392567999999999 3.4584960000000002 12.3C3.34068 12.045504000000001 3.042984 11.931144 2.7960000000000003 12.045504000000001M8.84604 17.021808C8.724432 17.053944 8.55588 17.221272 8.521944000000001 17.343576C8.504328 17.406959999999998 8.496216 18.40308 8.496144 20.514768C8.496024 23.244096000000003 8.500224 23.603664000000002 8.533272 23.682768000000003C8.70756 24.100032000000002 9.292440000000001 24.100032000000002 9.466728 23.682768000000003C9.499776 23.603664000000002 9.503976000000002 23.244096000000003 9.503856 20.514768C9.503784 18.40308 9.495672 17.406959999999998 9.478056 17.343576C9.44136 17.211336 9.27708 17.055024 9.138024 17.020032C9.009456 16.987655999999998 8.97444 16.987848 8.84604 17.021808M17.796 18.541656C17.686944 18.598272 17.59092 18.697248000000002 17.541504 18.804000000000002C17.499192 18.895368 17.497056 19.013232 17.497056 21.252C17.497056 23.490768000000003 17.499192 23.608632 17.541504 23.7C17.565936 23.7528 17.617008000000002 23.825136 17.654976 23.860728C17.908248 24.098208 18.311472 24.017568 18.458496 23.7C18.500808 23.608632 18.502944 23.490768000000003 18.502944 21.252C18.502944 19.028256000000003 18.500568 18.894744 18.45924 18.803784C18.412319999999998 18.700512 18.271632 18.562848 18.175776 18.526392C18.08472 18.491784 17.875944 18.500184 17.796 18.541656M11.82 20.528015999999997C11.70312 20.5812 11.588280000000001 20.691167999999998 11.54112 20.795016C11.500032000000001 20.885448 11.497056 20.983680000000003 11.497056 22.248C11.497056 23.517312 11.499888 23.610144 11.541504 23.7C11.69748 24.036936 12.13344 24.101712000000003 12.377111999999999 23.824176C12.419304 23.776104 12.465696 23.696112 12.480192 23.646408C12.498336 23.584128 12.504264 23.1336 12.499272 22.198224000000003L12.492 20.840448 12.425784 20.74044C12.328488 20.593416 12.19272 20.512415999999998 12.027840000000001 20.502984C11.947728 20.498424 11.862456 20.508696 11.82 20.528015999999997" stroke="none" fill="currentColor" fill-rule="evenodd" stroke-width="0.024"></path>
</svg>