<svg xmlns="http://www.w3.org/2000/svg" viewBox="0 0 24 24" version="1.1">
  <path d="M2.063112 2.532048C0.98328 2.680272 0.228072 3.4586639999999997 0.037368 4.62C0.001488 4.838544 -0.00132 5.33436 0.006096 10.164C0.01512 16.032984000000003 0.00096 15.526824000000001 0.16908 15.991488C0.420144 16.685328 1.100784 17.249208 1.898976 17.424623999999998L2.033952 17.454288 2.085984 17.649144C2.220768 18.153864 2.525424 18.620136000000002 2.933976 18.947015999999998C3.159768 19.127688 3.521112 19.319256000000003 3.771984 19.391328C4.0484160000000005 19.470744 4.043712 19.467192 4.078200000000001 19.621368C4.0952399999999995 19.697471999999998 4.13856 19.831968 4.174488 19.92024C4.521696 20.773416 5.278776000000001 21.361776 6.18 21.478800000000003C6.341952 21.499848 8.332728 21.505008 14.136000000000001 21.49944L21.876 21.492 22.115448 21.426000000000002C22.390224 21.350256 22.775664 21.169032 22.968 21.025128000000002C23.49624 20.629920000000002 23.8524 20.057616000000003 23.964672 19.423608C23.99796 19.235544 24.002904 18.408504 24.00912 11.988C24.012984000000003 8.0148 24.011496 5.6604 24.005832 6.756C23.996448 8.572776000000001 23.992536 8.731296 23.961336 8.558064C23.83404 7.851672000000001 23.395992 7.22376 22.764143999999998 6.841992000000001C22.590936 6.737328 22.274856 6.608688000000001 22.100736 6.5720160000000005L21.965472 6.543528 21.913728 6.349752C21.68232 5.48328 21.0102 4.821312 20.10816 4.571472L19.972344 4.533864 19.931664 4.348920000000001C19.844712 3.9537840000000006 19.660368000000002 3.5982000000000003 19.387824000000002 3.3000000000000003C19.076856 2.959752 18.626448 2.710128 18.075048 2.572488L17.82 2.5088160000000004 10.056000000000001 2.504712C3.77268 2.5014 2.248344 2.506608 2.063112 2.532048M2.22 3.5279280000000006C1.5767039999999999 3.625272 1.189128 4.01412 1.042992 4.7088C1.01628 4.835712 1.008 5.068128 1.008 5.68956L1.008 6.5040000000000004 10.008000000000001 6.5040000000000004L19.008 6.5040000000000004 19.007448 5.838C19.006848 5.1066 18.979632 4.657848 18.925104 4.480872C18.785256 4.02708 18.445800000000002 3.7213200000000004 17.913768 3.569976L17.724 3.516 10.032 3.51288C5.8014 3.5111760000000003 2.286 3.517944 2.22 3.5279280000000006M3.3240000000000003 4.270512C3.004968 4.348536 2.762064 4.647768 2.757264 4.968672C2.754264 5.168736 2.78928 5.294952 2.884056 5.4258C2.984808 5.5648800000000005 3.034488 5.606448 3.192 5.68344C3.466824 5.817792 3.836232 5.746824 4.040808 5.52036C4.196952 5.34756 4.235136 5.246328 4.2355920000000005 5.0040000000000004C4.235928 4.82148 4.22688 4.77012 4.177104 4.672704C4.0191360000000005 4.363488 3.651864 4.190352000000001 3.3240000000000003 4.270512M5.2609200000000005 4.2919920000000005C5.102112 4.34868 4.97856 4.446192 4.878336 4.59396C4.777176 4.743048 4.744104 4.872 4.757736 5.064C4.776672 5.330592 4.933896000000001 5.560344000000001 5.180136 5.68128C5.449368 5.813496000000001 5.808528 5.752128 6.02772 5.53644C6.243792000000001 5.323799999999999 6.309576 4.968288 6.183696 4.693344000000001C6.023352 4.343112 5.615112 4.16556 5.2609200000000005 4.2919920000000005M7.332 4.27032C7.116648 4.322424 6.915888 4.486464000000001 6.81516 4.692624C6.732792000000001 4.861248 6.733536000000001 5.143872 6.816792 5.316C6.978960000000001 5.6512080000000005 7.350048 5.82444 7.692672000000001 5.72484C8.043000000000001 5.622984 8.2446 5.3544480000000005 8.243400000000001 4.99128C8.242896 4.843104 8.230776 4.78596 8.176055999999999 4.67412C8.023032 4.361376 7.664568000000001 4.189896 7.332 4.27032M0.011784 10.044C0.011784 12.948 0.014592 14.132448 0.018000000000000002 12.676079999999999C0.021408 11.219736 0.021408 8.843736 0.018000000000000002 7.39608C0.014592 5.948448 0.011784 7.140000000000001 0.011784 10.044M19.992192000000003 10.408536000000002C19.991736 13.40952 19.982664 15.282336 19.968144 15.372C19.88484 15.886415999999999 19.69584 16.314192000000002 19.372416 16.72044C19.170768000000002 16.973736000000002 18.770496 17.240544 18.405288 17.36508C17.998632 17.503776 18.469944 17.496 10.460856000000001 17.496C5.080296000000001 17.496 3.096 17.503176 3.096 17.52264C3.096 17.607672 3.271128 17.865168 3.4550640000000006 18.050616C3.6747840000000003 18.272112 3.8790480000000005 18.391920000000002 4.152 18.459384C4.348776 18.508008 19.651224000000003 18.508008 19.848 18.459384C20.095176 18.398304 20.319936 18.272208 20.516616000000003 18.084312C20.725344 17.884872 20.857416 17.680104 20.934768000000002 17.436L20.988 17.268 20.988 12L20.988 6.732 20.934768000000002 6.564C20.905488000000002 6.4716 20.840784 6.327431999999999 20.79096 6.2436240000000005C20.6388 5.987688 20.272464000000003 5.673576 20.046456 5.605248L19.992912 5.589048 19.992192000000003 10.408536000000002M1.013592 11.442C1.0196880000000001 15.179304 1.0221600000000002 15.37836 1.063968 15.501503999999999C1.237968 16.013976 1.549632 16.293504 2.1165599999999998 16.445520000000002L2.316 16.498992 9.84 16.506528000000003C14.88024 16.511544 17.455632 16.505856 17.641560000000002 16.489248C18.08292 16.44984 18.341448 16.338912 18.575808 16.0884C18.736848000000002 15.916248000000001 18.862896 15.677784 18.941807999999998 15.396L18.995592 15.204 19.002432000000002 11.358L19.009272 7.5120000000000005 10.008216000000001 7.5120000000000005L1.00716 7.5120000000000005 1.013592 11.442M22.008 12.313344C22.008 15.509664 21.999696 17.11644 21.982344 17.271984000000003C21.859896 18.370152 21.056472 19.236816 19.946064 19.468536C19.846512 19.48932 17.916072 19.500072000000003 12.448920000000001 19.510272L5.08584 19.524 5.162976 19.68C5.2755600000000005 19.907688 5.594064 20.220288 5.832 20.336616000000003C6.182256 20.507856 5.52768 20.495160000000002 14.004 20.495160000000002C22.48704 20.495160000000002 21.829776 20.508048 22.176000000000002 20.334912C22.307184 20.26932 22.408176 20.192712 22.548336 20.052456C22.768704 19.831968 22.874472 19.651848 22.9446 19.377696C22.991088 19.195895999999998 22.992 19.092312 22.992 14.016576C22.992 10.401912000000001 22.984152 8.797872 22.965984000000002 8.698416C22.887432 8.268528 22.523208 7.818336 22.098 7.625568000000001L22.008 7.5847679999999995 22.008 12.313344" stroke="none" fill="currentColor" fill-rule="evenodd" stroke-width="0.024"></path>
</svg>